Pacifico-Bold-FINAL.ufo
<glyph name="quotedbl" format="1">
  <advance width="573"/>
  <unicode hex="0022"/>
  <outline>
    <contour>
      <point x="182" y="408" type="curve" smooth="yes"/>
      <point x="182" y="392"/>
      <point x="189" y="384"/>
      <point x="209" y="384" type="curve" smooth="yes"/>
      <point x="226" y="384"/>
      <point x="236" y="393"/>
      <point x="241" y="410" type="curve" smooth="yes"/>
      <point x="247" y="429"/>
      <point x="288" y="556"/>
      <point x="300" y="597" type="curve" smooth="yes"/>
      <point x="301" y="602"/>
      <point x="302" y="606"/>
      <point x="302" y="610" type="curve" smooth="yes"/>
      <point x="302" y="632"/>
      <point x="282" y="639"/>
      <point x="258" y="639" type="curve" smooth="yes"/>
      <point x="236" y="639"/>
      <point x="216" y="633"/>
      <point x="211" y="604" type="curve" smooth="yes"/>
      <point x="204" y="565"/>
      <point x="189" y="472"/>
      <point x="183" y="420" type="curve" smooth="yes"/>
      <point x="183" y="416"/>
      <point x="182" y="412"/>
    </contour>
    <contour>
      <point x="324" y="409" type="curve" smooth="yes"/>
      <point x="324" y="393"/>
      <point x="333" y="383"/>
      <point x="353" y="383" type="curve" smooth="yes"/>
      <point x="369" y="383"/>
      <point x="380" y="393"/>
      <point x="387" y="412" type="curve" smooth="yes"/>
      <point x="407" y="463"/>
      <point x="438" y="554"/>
      <point x="454" y="596" type="curve" smooth="yes"/>
      <point x="456" y="601"/>
      <point x="456" y="605"/>
      <point x="456" y="609" type="curve" smooth="yes"/>
      <point x="456" y="634"/>
      <point x="429" y="642"/>
      <point x="404" y="642" type="curve" smooth="yes"/>
      <point x="380" y="642"/>
      <point x="365" y="631"/>
      <point x="361" y="612" type="curve" smooth="yes"/>
      <point x="349" y="553"/>
      <point x="331" y="453"/>
      <point x="325" y="421" type="curve" smooth="yes"/>
      <point x="324" y="417"/>
      <point x="324" y="413"/>
    </contour>
  </outline>
</glyph>
<glyph name="percent" format="1">
  <advance width="783"/>
  <unicode hex="0025"/>
  <outline>
    <contour>
      <point x="592" y="-6" type="curve" smooth="yes"/>
      <point x="697" y="-6"/>
      <point x="760" y="97"/>
      <point x="760" y="208" type="curve" smooth="yes"/>
      <point x="760" y="293"/>
      <point x="726" y="365"/>
      <point x="640" y="365" type="curve" smooth="yes"/>
      <point x="522" y="365"/>
      <point x="465" y="258"/>
      <point x="465" y="141" type="curve" smooth="yes"/>
      <point x="465" y="59"/>
      <point x="507" y="-6"/>
    </contour>
    <contour>
      <point x="600" y="74" type="curve" smooth="yes"/>
      <point x="576" y="74"/>
      <point x="571" y="114"/>
      <point x="571" y="148" type="curve" smooth="yes"/>
      <point x="571" y="205"/>
      <point x="583" y="285"/>
      <point x="630" y="285" type="curve" smooth="yes"/>
      <point x="654" y="285"/>
      <point x="659" y="236"/>
      <point x="659" y="201" type="curve" smooth="yes"/>
      <point x="659" y="153"/>
      <point x="639" y="74"/>
    </contour>
    <contour>
      <point x="249" y="4" type="curve" smooth="yes"/>
      <point x="265" y="4"/>
      <point x="284" y="14"/>
      <point x="299" y="37" type="curve"/>
      <point x="298" y="37"/>
      <point x="546" y="483"/>
      <point x="567" y="521" type="curve" smooth="yes"/>
      <point x="578" y="540"/>
      <point x="582" y="556"/>
      <point x="582" y="569" type="curve" smooth="yes"/>
      <point x="582" y="589"/>
      <point x="571" y="601"/>
      <point x="557" y="601" type="curve" smooth="yes"/>
      <point x="544" y="601"/>
      <point x="529" y="591"/>
      <point x="516" y="569" type="curve" smooth="yes"/>
      <point x="226" y="78" type="line" smooth="yes"/>
      <point x="218" y="64"/>
      <point x="215" y="52"/>
      <point x="215" y="41" type="curve" smooth="yes"/>
      <point x="215" y="18"/>
      <point x="230" y="4"/>
    </contour>
    <contour>
      <point x="164" y="295" type="curve" smooth="yes"/>
      <point x="137" y="295"/>
      <point x="133" y="348"/>
      <point x="133" y="383" type="curve" smooth="yes"/>
      <point x="133" y="440"/>
      <point x="149" y="511"/>
      <point x="192" y="511" type="curve" smooth="yes"/>
      <point x="220" y="511"/>
      <point x="227" y="478"/>
      <point x="227" y="441" type="curve" smooth="yes"/>
      <point x="227" y="389"/>
      <point x="207" y="295"/>
    </contour>
    <contour>
      <point x="155" y="216" type="curve" smooth="yes"/>
      <point x="172" y="216"/>
      <point x="189" y="219"/>
      <point x="206" y="227" type="curve" smooth="yes"/>
      <point x="278" y="257"/>
      <point x="330" y="341"/>
      <point x="330" y="441" type="curve" smooth="yes"/>
      <point x="330" y="526"/>
      <point x="290" y="589"/>
      <point x="203" y="589" type="curve" smooth="yes"/>
      <point x="88" y="589"/>
      <point x="27" y="489"/>
      <point x="27" y="376" type="curve" smooth="yes"/>
      <point x="27" y="291"/>
      <point x="69" y="216"/>
    </contour>
  </outline>
</glyph>
<glyph name="plus" format="1">
  <advance width="514"/>
  <unicode hex="002B"/>
  <outline>
    <contour>
      <point x="263" y="17" type="curve" smooth="yes"/>
      <point x="288" y="17"/>
      <point x="300" y="41"/>
      <point x="300" y="66" type="curve" smooth="yes"/>
      <point x="300" y="138" type="line"/>
      <point x="375" y="138" type="line" smooth="yes"/>
      <point x="399" y="138"/>
      <point x="419" y="154"/>
      <point x="419" y="180" type="curve" smooth="yes"/>
      <point x="419" y="199"/>
      <point x="403" y="212"/>
      <point x="381" y="212" type="curve" smooth="yes"/>
      <point x="300" y="212" type="line"/>
      <point x="300" y="292" type="line" smooth="yes"/>
      <point x="300" y="314"/>
      <point x="287" y="330"/>
      <point x="267" y="330" type="curve" smooth="yes"/>
      <point x="243" y="330"/>
      <point x="226" y="310"/>
      <point x="226" y="286" type="curve" smooth="yes"/>
      <point x="226" y="212" type="line"/>
      <point x="155" y="212" type="line" smooth="yes"/>
      <point x="130" y="212"/>
      <point x="105" y="200"/>
      <point x="105" y="175" type="curve" smooth="yes"/>
      <point x="105" y="148"/>
      <point x="129" y="138"/>
      <point x="153" y="138" type="curve" smooth="yes"/>
      <point x="226" y="138" type="line"/>
      <point x="226" y="64" type="line" smooth="yes"/>
      <point x="226" y="40"/>
      <point x="236" y="17"/>
    </contour>
  </outline>
</glyph>
<glyph name="zero" format="1">
  <advance width="417"/>
  <unicode hex="0030"/>
  <outline>
    <contour>
      <point x="42" y="181" type="curve" smooth="yes"/>
      <point x="42" y="76"/>
      <point x="93" y="-7"/>
      <point x="199" y="-7" type="curve" smooth="yes"/>
      <point x="300" y="-7"/>
      <point x="393" y="65"/>
      <point x="408" y="273" type="curve" smooth="yes"/>
      <point x="409" y="283"/>
      <point x="409" y="292"/>
      <point x="409" y="302" type="curve" smooth="yes"/>
      <point x="409" y="407"/>
      <point x="363" y="495"/>
      <point x="254" y="495" type="curve" smooth="yes"/>
      <point x="125" y="495"/>
      <point x="42" y="366"/>
    </contour>
    <contour>
      <point x="249" y="403" type="curve" smooth="yes"/>
      <point x="294" y="403"/>
      <point x="306" y="360"/>
      <point x="306" y="304" type="curve" smooth="yes"/>
      <point x="306" y="290"/>
      <point x="305" y="276"/>
      <point x="304" y="261" type="curve" smooth="yes"/>
      <point x="294" y="125"/>
      <point x="253" y="80"/>
      <point x="208" y="80" type="curve" smooth="yes"/>
      <point x="165" y="80"/>
      <point x="149" y="122"/>
      <point x="149" y="185" type="curve" smooth="yes"/>
      <point x="149" y="193"/>
      <point x="149" y="201"/>
      <point x="150" y="210" type="curve" smooth="yes"/>
      <point x="160" y="343"/>
      <point x="203" y="403"/>
    </contour>
  </outline>
</glyph>
<glyph name="two" format="1">
  <advance width="417"/>
  <unicode hex="0032"/>
  <outline>
    <contour>
      <point x="114" y="96" type="curve" smooth="yes"/>
      <point x="114" y="108"/>
      <point x="123" y="120"/>
      <point x="145" y="120" type="curve" smooth="yes"/>
      <point x="159" y="120"/>
      <point x="180" y="115"/>
      <point x="207" y="102" type="curve"/>
      <point x="182" y="81"/>
      <point x="159" y="72"/>
      <point x="142" y="72" type="curve" smooth="yes"/>
      <point x="125" y="72"/>
      <point x="114" y="81"/>
    </contour>
    <contour>
      <point x="238" y="501" type="curve" smooth="yes"/>
      <point x="130" y="501"/>
      <point x="59" y="447"/>
      <point x="59" y="339" type="curve" smooth="yes"/>
      <point x="59" y="296"/>
      <point x="68" y="259"/>
      <point x="108" y="259" type="curve" smooth="yes"/>
      <point x="213" y="259"/>
      <point x="95" y="409"/>
      <point x="228" y="425" type="curve" smooth="yes"/>
      <point x="231" y="425"/>
      <point x="235" y="426"/>
      <point x="238" y="426" type="curve" smooth="yes"/>
      <point x="287" y="426"/>
      <point x="309" y="377"/>
      <point x="309" y="319" type="curve" smooth="yes"/>
      <point x="309" y="260"/>
      <point x="285" y="191"/>
      <point x="242" y="151" type="curve"/>
      <point x="209" y="174"/>
      <point x="177" y="186"/>
      <point x="133" y="186" type="curve" smooth="yes"/>
      <point x="81" y="186"/>
      <point x="46" y="154"/>
      <point x="46" y="100" type="curve" smooth="yes"/>
      <point x="46" y="34"/>
      <point x="91" y="2"/>
      <point x="145" y="2" type="curve" smooth="yes"/>
      <point x="180" y="2"/>
      <point x="219" y="15"/>
      <point x="250" y="42" type="curve"/>
      <point x="274" y="24"/>
      <point x="305" y="0"/>
      <point x="344" y="0" type="curve" smooth="yes"/>
      <point x="393" y="0"/>
      <point x="410" y="51"/>
      <point x="410" y="83" type="curve" smooth="yes"/>
      <point x="410" y="90" type="line" smooth="yes"/>
      <point x="410" y="105"/>
      <point x="409" y="113"/>
      <point x="396" y="113" type="curve" smooth="yes"/>
      <point x="378" y="113"/>
      <point x="372" y="86"/>
      <point x="348" y="86" type="curve" smooth="yes"/>
      <point x="338" y="86"/>
      <point x="324" y="90"/>
      <point x="309" y="102" type="curve"/>
      <point x="369" y="170"/>
      <point x="401" y="255"/>
      <point x="401" y="329" type="curve" smooth="yes"/>
      <point x="401" y="424"/>
      <point x="349" y="501"/>
    </contour>
  </outline>
</glyph>
<glyph name="three" format="1">
  <advance width="417"/>
  <unicode hex="0033"/>
  <outline>
    <contour>
      <point x="233" y="-23" type="curve" smooth="yes"/>
      <point x="307" y="-23"/>
      <point x="396" y="13"/>
      <point x="396" y="145" type="curve" smooth="yes"/>
      <point x="396" y="200"/>
      <point x="359" y="254"/>
      <point x="290" y="269" type="curve"/>
      <point x="363" y="280"/>
      <point x="386" y="345"/>
      <point x="386" y="384" type="curve" smooth="yes"/>
      <point x="386" y="452"/>
      <point x="339" y="480"/>
      <point x="280" y="489" type="curve" smooth="yes"/>
      <point x="272" y="490"/>
      <point x="263" y="491"/>
      <point x="255" y="491" type="curve" smooth="yes"/>
      <point x="199" y="491"/>
      <point x="137" y="463"/>
      <point x="105" y="427" type="curve" smooth="yes"/>
      <point x="101" y="422"/>
      <point x="99" y="416"/>
      <point x="99" y="409" type="curve" smooth="yes"/>
      <point x="99" y="389"/>
      <point x="115" y="366"/>
      <point x="137" y="366" type="curve" smooth="yes"/>
      <point x="147" y="366"/>
      <point x="158" y="371"/>
      <point x="170" y="384" type="curve" smooth="yes"/>
      <point x="188" y="401"/>
      <point x="211" y="410"/>
      <point x="232" y="410" type="curve" smooth="yes"/>
      <point x="258" y="410"/>
      <point x="280" y="395"/>
      <point x="280" y="360" type="curve" smooth="yes"/>
      <point x="280" y="311"/>
      <point x="226" y="293"/>
      <point x="195" y="293" type="curve" smooth="yes"/>
      <point x="158" y="293"/>
      <point x="143" y="282"/>
      <point x="143" y="258" type="curve" smooth="yes"/>
      <point x="143" y="232"/>
      <point x="155" y="219"/>
      <point x="176" y="219" type="curve" smooth="yes"/>
      <point x="239" y="219"/>
      <point x="296" y="187"/>
      <point x="301" y="146" type="curve" smooth="yes"/>
      <point x="302" y="141"/>
      <point x="302" y="136"/>
      <point x="302" y="131" type="curve" smooth="yes"/>
      <point x="302" y="80"/>
      <point x="266" y="58"/>
      <point x="227" y="58" type="curve" smooth="yes"/>
      <point x="190" y="58"/>
      <point x="149" y="78"/>
      <point x="133" y="112" type="curve" smooth="yes"/>
      <point x="127" y="124"/>
      <point x="116" y="129"/>
      <point x="105" y="129" type="curve" smooth="yes"/>
      <point x="84" y="129"/>
      <point x="60" y="111"/>
      <point x="60" y="85" type="curve" smooth="yes"/>
      <point x="60" y="78"/>
      <point x="62" y="69"/>
      <point x="66" y="61" type="curve" smooth="yes"/>
      <point x="96" y="0"/>
      <point x="164" y="-23"/>
    </contour>
  </outline>
</glyph>
<glyph name="six" format="1">
  <advance width="387"/>
  <unicode hex="0036"/>
  <outline>
    <contour>
      <point x="229" y="72" type="curve" smooth="yes"/>
      <point x="172" y="72"/>
      <point x="146" y="123"/>
      <point x="146" y="155" type="curve" smooth="yes"/>
      <point x="146" y="210"/>
      <point x="179" y="235"/>
      <point x="231" y="235" type="curve" smooth="yes"/>
      <point x="271" y="235"/>
      <point x="294" y="192"/>
      <point x="294" y="151" type="curve" smooth="yes"/>
      <point x="294" y="111"/>
      <point x="273" y="72"/>
    </contour>
    <contour>
      <point x="388" y="154" type="curve" smooth="yes"/>
      <point x="388" y="257"/>
      <point x="312" y="320"/>
      <point x="241" y="320" type="curve" smooth="yes"/>
      <point x="210" y="320"/>
      <point x="180" y="308"/>
      <point x="159" y="282" type="curve"/>
      <point x="201" y="372"/>
      <point x="271" y="400"/>
      <point x="333" y="429" type="curve" smooth="yes"/>
      <point x="350" y="436"/>
      <point x="360" y="453"/>
      <point x="360" y="472" type="curve" smooth="yes"/>
      <point x="360" y="494"/>
      <point x="347" y="505"/>
      <point x="321" y="505" type="curve" smooth="yes"/>
      <point x="308" y="505"/>
      <point x="299" y="501"/>
      <point x="289" y="496" type="curve" smooth="yes"/>
      <point x="170" y="438"/>
      <point x="54" y="351"/>
      <point x="54" y="177" type="curve" smooth="yes"/>
      <point x="54" y="51"/>
      <point x="118" y="0"/>
      <point x="201" y="-12" type="curve" smooth="yes"/>
      <point x="210" y="-13"/>
      <point x="219" y="-14"/>
      <point x="227" y="-14" type="curve" smooth="yes"/>
      <point x="323" y="-14"/>
      <point x="388" y="56"/>
    </contour>
  </outline>
</glyph>
<glyph name="seven" format="1">
  <advance width="417"/>
  <unicode hex="0037"/>
  <outline>
    <contour>
      <point x="248" y="23" type="curve" smooth="yes"/>
      <point x="274" y="112"/>
      <point x="337" y="240"/>
      <point x="413" y="362" type="curve" smooth="yes"/>
      <point x="415" y="369"/>
      <point x="446" y="399"/>
      <point x="446" y="429" type="curve" smooth="yes"/>
      <point x="446" y="448"/>
      <point x="439" y="467"/>
      <point x="416" y="467" type="curve" smooth="yes"/>
      <point x="408" y="467"/>
      <point x="376" y="462"/>
      <point x="362" y="462" type="curve" smooth="yes"/>
      <point x="141" y="462" type="line" smooth="yes"/>
      <point x="128" y="462"/>
      <point x="117" y="438"/>
      <point x="117" y="414" type="curve" smooth="yes"/>
      <point x="117" y="392"/>
      <point x="127" y="371"/>
      <point x="155" y="371" type="curve" smooth="yes"/>
      <point x="159" y="371"/>
      <point x="163" y="371"/>
      <point x="168" y="372" type="curve" smooth="yes"/>
      <point x="198" y="378"/>
      <point x="246" y="385"/>
      <point x="283" y="388" type="curve" smooth="yes"/>
      <point x="331" y="391" type="line"/>
      <point x="237" y="248"/>
      <point x="185" y="125"/>
      <point x="152" y="46" type="curve" smooth="yes"/>
      <point x="150" y="41"/>
      <point x="150" y="37"/>
      <point x="150" y="33" type="curve" smooth="yes"/>
      <point x="150" y="7"/>
      <point x="177" y="-13"/>
      <point x="203" y="-13" type="curve" smooth="yes"/>
      <point x="222" y="-13"/>
      <point x="240" y="-2"/>
    </contour>
  </outline>
</glyph>
<glyph name="eight" format="1">
  <advance width="417"/>
  <unicode hex="0038"/>
  <outline>
    <contour>
      <point x="256" y="308" type="curve"/>
      <point x="241" y="324"/>
      <point x="208" y="351"/>
      <point x="208" y="377" type="curve" smooth="yes"/>
      <point x="208" y="415"/>
      <point x="234" y="428"/>
      <point x="273" y="428" type="curve" smooth="yes"/>
      <point x="282" y="428"/>
      <point x="310" y="416"/>
      <point x="310" y="387" type="curve" smooth="yes"/>
      <point x="310" y="355"/>
      <point x="274" y="321"/>
    </contour>
    <contour>
      <point x="224" y="65" type="curve" smooth="yes"/>
      <point x="185" y="65"/>
      <point x="174" y="92"/>
      <point x="174" y="110" type="curve" smooth="yes"/>
      <point x="174" y="158"/>
      <point x="209" y="190"/>
      <point x="240" y="207" type="curve"/>
      <point x="256" y="190"/>
      <point x="282" y="147"/>
      <point x="282" y="126" type="curve" smooth="yes"/>
      <point x="282" y="100"/>
      <point x="264" y="65"/>
    </contour>
    <contour>
      <point x="409" y="408" type="curve" smooth="yes"/>
      <point x="409" y="483"/>
      <point x="338" y="509"/>
      <point x="264" y="509" type="curve" smooth="yes"/>
      <point x="178" y="509"/>
      <point x="115" y="451"/>
      <point x="115" y="367" type="curve" smooth="yes"/>
      <point x="115" y="320"/>
      <point x="159" y="283"/>
      <point x="189" y="267" type="curve"/>
      <point x="131" y="235"/>
      <point x="86" y="187"/>
      <point x="86" y="102" type="curve" smooth="yes"/>
      <point x="86" y="18"/>
      <point x="141" y="-18"/>
      <point x="232" y="-18" type="curve" smooth="yes"/>
      <point x="322" y="-18"/>
      <point x="385" y="29"/>
      <point x="385" y="111" type="curve" smooth="yes"/>
      <point x="385" y="178"/>
      <point x="344" y="218"/>
      <point x="302" y="248" type="curve"/>
      <point x="364" y="276"/>
      <point x="409" y="321"/>
    </contour>
  </outline>
</glyph>
<glyph name="nine" format="1">
  <advance width="417"/>
  <unicode hex="0039"/>
  <outline>
    <contour>
      <point x="292" y="231" type="curve" smooth="yes"/>
      <point x="292" y="171"/>
      <point x="269" y="138"/>
      <point x="208" y="138" type="curve" smooth="yes"/>
      <point x="197" y="138" type="line" smooth="yes"/>
      <point x="156" y="140"/>
      <point x="133" y="181"/>
      <point x="133" y="224" type="curve" smooth="yes"/>
      <point x="133" y="271"/>
      <point x="161" y="319"/>
      <point x="221" y="319" type="curve" smooth="yes"/>
      <point x="226" y="319"/>
      <point x="232" y="319"/>
      <point x="238" y="318" type="curve" smooth="yes"/>
      <point x="282" y="312"/>
      <point x="292" y="267"/>
    </contour>
    <contour>
      <point x="242" y="398" type="curve" smooth="yes"/>
      <point x="232" y="399"/>
      <point x="222" y="400"/>
      <point x="212" y="400" type="curve" smooth="yes"/>
      <point x="105" y="400"/>
      <point x="37" y="321"/>
      <point x="37" y="210" type="curve" smooth="yes"/>
      <point x="37" y="108"/>
      <point x="115" y="63"/>
      <point x="188" y="63" type="curve" smooth="yes"/>
      <point x="222" y="63"/>
      <point x="255" y="73"/>
      <point x="279" y="91" type="curve"/>
      <point x="229" y="-5"/>
      <point x="146" y="-38"/>
      <point x="78" y="-70" type="curve" smooth="yes"/>
      <point x="54" y="-80"/>
      <point x="44" y="-95"/>
      <point x="44" y="-109" type="curve" smooth="yes"/>
      <point x="44" y="-128"/>
      <point x="63" y="-145"/>
      <point x="91" y="-145" type="curve" smooth="yes"/>
      <point x="100" y="-145"/>
      <point x="110" y="-143"/>
      <point x="121" y="-139" type="curve" smooth="yes"/>
      <point x="260" y="-82"/>
      <point x="389" y="20"/>
      <point x="389" y="217" type="curve" smooth="yes"/>
      <point x="389" y="339"/>
      <point x="326" y="388"/>
    </contour>
  </outline>
</glyph>
<glyph name="question" format="1">
  <advance width="350"/>
  <unicode hex="003F"/>
  <outline>
    <contour>
      <point x="186" y="-10" type="curve" smooth="yes"/>
      <point x="230" y="-10"/>
      <point x="256" y="19"/>
      <point x="256" y="61" type="curve" smooth="yes"/>
      <point x="256" y="102"/>
      <point x="233" y="124"/>
      <point x="193" y="124" type="curve" smooth="yes"/>
      <point x="148" y="124"/>
      <point x="124" y="93"/>
      <point x="124" y="51" type="curve" smooth="yes"/>
      <point x="124" y="12"/>
      <point x="147" y="-10"/>
    </contour>
    <contour>
      <point x="250" y="547" type="curve" smooth="yes"/>
      <point x="291" y="547"/>
      <point x="329" y="529"/>
      <point x="329" y="478" type="curve" smooth="yes"/>
      <point x="329" y="470" type="line" smooth="yes"/>
      <point x="321" y="360"/>
      <point x="193" y="349"/>
      <point x="191" y="250" type="curve" smooth="yes"/>
      <point x="191" y="240"/>
      <point x="195" y="227"/>
      <point x="215" y="227" type="curve" smooth="yes"/>
      <point x="231" y="227"/>
      <point x="236" y="238"/>
      <point x="243" y="255" type="curve" smooth="yes"/>
      <point x="273" y="325"/>
      <point x="430" y="326"/>
      <point x="430" y="488" type="curve" smooth="yes"/>
      <point x="430" y="589"/>
      <point x="346" y="638"/>
      <point x="258" y="638" type="curve" smooth="yes"/>
      <point x="200" y="638"/>
      <point x="102" y="614"/>
      <point x="78" y="509" type="curve" smooth="yes"/>
      <point x="77" y="507"/>
      <point x="77" y="504"/>
      <point x="77" y="502" type="curve" smooth="yes"/>
      <point x="77" y="480"/>
      <point x="103" y="465"/>
      <point x="123" y="465" type="curve" smooth="yes"/>
      <point x="133" y="465"/>
      <point x="143" y="469"/>
      <point x="146" y="477" type="curve" smooth="yes"/>
      <point x="169" y="528"/>
      <point x="210" y="547"/>
    </contour>
  </outline>
</glyph>
<glyph name="B" format="1">
  <advance width="609"/>
  <unicode hex="0042"/>
  <outline>
    <contour>
      <point x="417" y="708" type="move" name="top"/>
    </contour>
    <contour>
      <point x="223" y="-90" type="curve" smooth="yes"/>
      <point x="414" y="-90"/>
      <point x="598" y="39"/>
      <point x="598" y="176" type="curve" smooth="yes"/>
      <point x="598" y="253"/>
      <point x="511" y="303"/>
      <point x="453" y="307" type="curve"/>
      <point x="576" y="307"/>
      <point x="640" y="398"/>
      <point x="653" y="458" type="curve" smooth="yes"/>
      <point x="656" y="469"/>
      <point x="657" y="480"/>
      <point x="657" y="491" type="curve" smooth="yes"/>
      <point x="657" y="587"/>
      <point x="564" y="681"/>
      <point x="370" y="681" type="curve" smooth="yes"/>
      <point x="197" y="681"/>
      <point x="98" y="618"/>
      <point x="31" y="559" type="curve" smooth="yes"/>
      <point x="23" y="552"/>
      <point x="20" y="542"/>
      <point x="20" y="532" type="curve" smooth="yes"/>
      <point x="20" y="509"/>
      <point x="40" y="485"/>
      <point x="68" y="485" type="curve" smooth="yes"/>
      <point x="81" y="485"/>
      <point x="96" y="490"/>
      <point x="112" y="503" type="curve" smooth="yes"/>
      <point x="178" y="559"/>
      <point x="246" y="593"/>
      <point x="375" y="593" type="curve" smooth="yes"/>
      <point x="494" y="593"/>
      <point x="538" y="537"/>
      <point x="538" y="476" type="curve" smooth="yes"/>
      <point x="538" y="468" type="line" smooth="yes"/>
      <point x="534" y="428"/>
      <point x="513" y="336"/>
      <point x="372" y="336" type="curve" smooth="yes"/>
      <point x="367" y="336" type="line" smooth="yes"/>
      <point x="334" y="338" type="line" smooth="yes"/>
      <point x="307" y="337"/>
      <point x="282" y="334"/>
      <point x="282" y="307" type="curve" smooth="yes"/>
      <point x="282" y="255"/>
      <point x="484" y="300"/>
      <point x="484" y="171" type="curve" smooth="yes"/>
      <point x="484" y="85"/>
      <point x="365" y="-13"/>
      <point x="213" y="-13" type="curve" smooth="yes"/>
      <point x="179" y="-13"/>
      <point x="180" y="-8"/>
      <point x="180" y="15" type="curve" smooth="yes"/>
      <point x="180" y="163"/>
      <point x="215" y="397"/>
      <point x="283" y="480" type="curve"/>
      <point x="271" y="501"/>
      <point x="256" y="512"/>
      <point x="233" y="512" type="curve" smooth="yes"/>
      <point x="138" y="512"/>
      <point x="63" y="350"/>
      <point x="63" y="-23" type="curve" smooth="yes"/>
      <point x="63" y="-65"/>
      <point x="124" y="-90"/>
    </contour>
  </outline>
</glyph>
<glyph name="D" format="1">
  <advance width="636"/>
  <unicode hex="0044"/>
  <outline>
    <contour>
      <point x="172" y="308" type="move" name="mid"/>
    </contour>
    <contour>
      <point x="397" y="708" type="move" name="top"/>
    </contour>
    <contour>
      <point x="227" y="-36" type="move" name="bot"/>
    </contour>
    <contour>
      <point x="293" y="588" type="curve" smooth="yes"/>
      <point x="452" y="588"/>
      <point x="534" y="496"/>
      <point x="534" y="384" type="curve" smooth="yes"/>
      <point x="534" y="195"/>
      <point x="376" y="25"/>
      <point x="210" y="25" type="curve" smooth="yes"/>
      <point x="191" y="25"/>
      <point x="188" y="42"/>
      <point x="188" y="70" type="curve" smooth="yes"/>
      <point x="188" y="86" type="line" smooth="yes"/>
      <point x="187" y="212"/>
      <point x="250" y="428"/>
      <point x="309" y="502" type="curve"/>
      <point x="294" y="528"/>
      <point x="271" y="543"/>
      <point x="249" y="543" type="curve" smooth="yes"/>
      <point x="233" y="542"/>
      <point x="218" y="535"/>
      <point x="207" y="519" type="curve" smooth="yes"/>
      <point x="136" y="415"/>
      <point x="79" y="193"/>
      <point x="80" y="21" type="curve" smooth="yes"/>
      <point x="79" y="4"/>
      <point x="90" y="-12"/>
      <point x="104" y="-20" type="curve" smooth="yes"/>
      <point x="123" y="-31"/>
      <point x="172" y="-51"/>
      <point x="217" y="-51" type="curve" smooth="yes"/>
      <point x="223" y="-51" type="line" smooth="yes"/>
      <point x="399" y="-43"/>
      <point x="633" y="75"/>
      <point x="633" y="393" type="curve" smooth="yes"/>
      <point x="633" y="573"/>
      <point x="517" y="684"/>
      <point x="314" y="684" type="curve" smooth="yes"/>
      <point x="298" y="684"/>
      <point x="282" y="683"/>
      <point x="265" y="682" type="curve" smooth="yes"/>
      <point x="193" y="676"/>
      <point x="111" y="649"/>
      <point x="61" y="588" type="curve" smooth="yes"/>
      <point x="47" y="571"/>
      <point x="31" y="536"/>
      <point x="32" y="502" type="curve" smooth="yes"/>
      <point x="31" y="486"/>
      <point x="38" y="457"/>
      <point x="64" y="457" type="curve" smooth="yes"/>
      <point x="87" y="457"/>
      <point x="129" y="526"/>
      <point x="132" y="531" type="curve" smooth="yes"/>
      <point x="180" y="580"/>
      <point x="236" y="588"/>
    </contour>
  </outline>
</glyph>
<glyph name="I" format="1">
  <advance width="346"/>
  <unicode hex="0049"/>
  <outline>
    <contour>
      <point x="347" y="708" type="move" name="top"/>
    </contour>
    <contour>
      <point x="174" y="0" type="move" name="ogonek"/>
    </contour>
    <contour>
      <point x="-8" y="6" type="curve" smooth="yes"/>
      <point x="-8" y="-14"/>
      <point x="4" y="-34"/>
      <point x="26" y="-34" type="curve" smooth="yes"/>
      <point x="60" y="-34"/>
      <point x="189" y="-13"/>
      <point x="283" y="-9" type="curve" smooth="yes"/>
      <point x="316" y="-8"/>
      <point x="330" y="14"/>
      <point x="330" y="34" type="curve" smooth="yes"/>
      <point x="330" y="47"/>
      <point x="324" y="59"/>
      <point x="314" y="63" type="curve" smooth="yes"/>
      <point x="298" y="69"/>
      <point x="241" y="72"/>
      <point x="223" y="72" type="curve" smooth="yes"/>
      <point x="221.011" y="72" type="line"/>
      <point x="222.548" y="182.843"/>
      <point x="313.127" y="487.217"/>
      <point x="355" y="559" type="curve"/>
      <point x="420" y="559"/>
      <point x="463" y="559"/>
      <point x="469" y="589" type="curve" smooth="yes"/>
      <point x="472" y="605"/>
      <point x="475" y="619"/>
      <point x="475" y="631" type="curve" smooth="yes"/>
      <point x="475" y="650"/>
      <point x="468" y="662"/>
      <point x="447" y="662" type="curve" smooth="yes"/>
      <point x="345" y="662"/>
      <point x="205" y="661"/>
      <point x="178" y="661" type="curve" smooth="yes"/>
      <point x="154" y="661"/>
      <point x="140" y="629"/>
      <point x="140" y="601" type="curve" smooth="yes"/>
      <point x="140" y="564"/>
      <point x="156" y="555"/>
      <point x="198" y="555" type="curve" smooth="yes"/>
      <point x="215" y="555"/>
      <point x="237" y="556"/>
      <point x="265" y="557" type="curve"/>
      <point x="209" y="446"/>
      <point x="148" y="235"/>
      <point x="132" y="67" type="curve"/>
      <point x="93" y="66"/>
      <point x="4" y="53"/>
      <point x="-5" y="23" type="curve" smooth="yes"/>
      <point x="-7" y="17"/>
      <point x="-8" y="11"/>
    </contour>
  </outline>
</glyph>
<glyph name="K" format="1">
  <advance width="697"/>
  <unicode hex="004B"/>
  <outline>
    <contour>
      <point x="547" y="708" type="move" name="top"/>
    </contour>
    <contour>
      <point x="280" y="-152" type="move" name="bot"/>
    </contour>
    <contour>
      <point x="-1" y="-42" type="curve" smooth="yes"/>
      <point x="-18" y="-42"/>
      <point x="-31" y="-34"/>
      <point x="-46" y="-34" type="curve" smooth="yes"/>
      <point x="-75" y="-34"/>
      <point x="-97" y="-58"/>
      <point x="-97" y="-92" type="curve" smooth="yes"/>
      <point x="-97" y="-95"/>
      <point x="-96" y="-99"/>
      <point x="-96" y="-103" type="curve" smooth="yes"/>
      <point x="-92" y="-139"/>
      <point x="-15" y="-141"/>
      <point x="19" y="-141" type="curve" smooth="yes"/>
      <point x="170" y="-141"/>
      <point x="265" y="5"/>
      <point x="320" y="286" type="curve"/>
      <point x="338" y="19"/>
      <point x="454" y="-151"/>
      <point x="609" y="-151" type="curve" smooth="yes"/>
      <point x="614" y="-151"/>
      <point x="744" y="-146"/>
      <point x="744" y="-104" type="curve" smooth="yes"/>
      <point x="744" y="-67"/>
      <point x="731" y="-55"/>
      <point x="707" y="-55" type="curve" smooth="yes"/>
      <point x="685" y="-55"/>
      <point x="656" y="-65"/>
      <point x="621" y="-65" type="curve" smooth="yes"/>
      <point x="523" y="-62"/>
      <point x="443" y="73"/>
      <point x="411" y="285" type="curve"/>
      <point x="595" y="376"/>
      <point x="755" y="553"/>
      <point x="783" y="613" type="curve" smooth="yes"/>
      <point x="789" y="628"/>
      <point x="795" y="645"/>
      <point x="795" y="660" type="curve" smooth="yes"/>
      <point x="795" y="678"/>
      <point x="786" y="692"/>
      <point x="760" y="692" type="curve" smooth="yes"/>
      <point x="729" y="692"/>
      <point x="709" y="660"/>
      <point x="685" y="626" type="curve" smooth="yes"/>
      <point x="634" y="557"/>
      <point x="496" y="416"/>
      <point x="327" y="327" type="curve"/>
      <point x="341" y="432"/>
      <point x="348" y="593"/>
      <point x="348" y="661" type="curve" smooth="yes"/>
      <point x="348" y="687"/>
      <point x="328" y="703"/>
      <point x="306" y="703" type="curve" smooth="yes"/>
      <point x="303" y="703"/>
      <point x="300" y="703"/>
      <point x="297" y="702" type="curve" smooth="yes"/>
      <point x="14" y="655"/>
      <point x="-49" y="517"/>
      <point x="-49" y="418" type="curve" smooth="yes"/>
      <point x="-49" y="366"/>
      <point x="-31" y="294"/>
      <point x="12" y="294" type="curve" smooth="yes"/>
      <point x="14" y="294"/>
      <point x="16" y="295"/>
      <point x="18" y="295" type="curve" smooth="yes"/>
      <point x="51" y="302"/>
      <point x="64" y="312"/>
      <point x="64" y="332" type="curve" smooth="yes"/>
      <point x="64" y="338" type="line" smooth="yes"/>
      <point x="57" y="354"/>
      <point x="43" y="388"/>
      <point x="43" y="429" type="curve" smooth="yes"/>
      <point x="43" y="494"/>
      <point x="79" y="575"/>
      <point x="237" y="615" type="curve"/>
      <point x="239" y="572"/>
      <point x="241" y="531"/>
      <point x="241" y="492" type="curve" smooth="yes"/>
      <point x="241" y="162"/>
      <point x="155" y="-42"/>
    </contour>
  </outline>
</glyph>
<glyph name="M" format="1">
  <advance width="919"/>
  <unicode hex="004D"/>
  <outline>
    <contour>
      <point x="657" y="708" type="move" name="top"/>
    </contour>
    <contour>
      <point x="168" y="571" type="curve" smooth="yes"/>
      <point x="184" y="571"/>
      <point x="189" y="558"/>
      <point x="189" y="531" type="curve" smooth="yes"/>
      <point x="189" y="491"/>
      <point x="175" y="421"/>
      <point x="145" y="318" type="curve" smooth="yes"/>
      <point x="41" y="-32" type="line"/>
      <point x="47" y="-37"/>
      <point x="79" y="-59"/>
      <point x="121" y="-59" type="curve" smooth="yes"/>
      <point x="160" y="-59"/>
      <point x="165" y="-23"/>
      <point x="177" y="14" type="curve" smooth="yes"/>
      <point x="296" y="381"/>
      <point x="359" y="536"/>
      <point x="459" y="536" type="curve" smooth="yes"/>
      <point x="499" y="536"/>
      <point x="512" y="507"/>
      <point x="512" y="470" type="curve" smooth="yes"/>
      <point x="512" y="442"/>
      <point x="504" y="408"/>
      <point x="497" y="381" type="curve" smooth="yes"/>
      <point x="378" y="-23" type="line"/>
      <point x="383" y="-27"/>
      <point x="411" y="-49"/>
      <point x="445" y="-49" type="curve" smooth="yes"/>
      <point x="484" y="-49"/>
      <point x="489" y="-9"/>
      <point x="506" y="39" type="curve" smooth="yes"/>
      <point x="594" y="289"/>
      <point x="674" y="545"/>
      <point x="767" y="562" type="curve" smooth="yes"/>
      <point x="772" y="563"/>
      <point x="777" y="563"/>
      <point x="781" y="563" type="curve" smooth="yes"/>
      <point x="811" y="563"/>
      <point x="822" y="541"/>
      <point x="822" y="507" type="curve" smooth="yes"/>
      <point x="822" y="467"/>
      <point x="807" y="412"/>
      <point x="791" y="358" type="curve" smooth="yes"/>
      <point x="721" y="123" type="line" smooth="yes"/>
      <point x="711" y="90"/>
      <point x="705" y="57"/>
      <point x="705" y="28" type="curve" smooth="yes"/>
      <point x="705" y="-40"/>
      <point x="744" y="-94"/>
      <point x="843" y="-94" type="curve" smooth="yes"/>
      <point x="886" y="-94"/>
      <point x="933" y="-80"/>
      <point x="974" y="-33" type="curve" smooth="yes"/>
      <point x="983" y="-23"/>
      <point x="987" y="-12"/>
      <point x="987" y="-2" type="curve" smooth="yes"/>
      <point x="987" y="20"/>
      <point x="968" y="37"/>
      <point x="949" y="37" type="curve" smooth="yes"/>
      <point x="941" y="37"/>
      <point x="933" y="34"/>
      <point x="927" y="27" type="curve" smooth="yes"/>
      <point x="907" y="4"/>
      <point x="879" y="-7"/>
      <point x="855" y="-7" type="curve" smooth="yes"/>
      <point x="825" y="-7"/>
      <point x="801" y="10"/>
      <point x="801" y="47" type="curve" smooth="yes"/>
      <point x="801" y="56"/>
      <point x="803" y="66"/>
      <point x="806" y="78" type="curve" smooth="yes"/>
      <point x="881" y="334" type="line" smooth="yes"/>
      <point x="901" y="402"/>
      <point x="916" y="465"/>
      <point x="920" y="530" type="curve" smooth="yes"/>
      <point x="920" y="542" type="line" smooth="yes"/>
      <point x="920" y="584"/>
      <point x="904" y="661"/>
      <point x="813" y="661" type="curve" smooth="yes"/>
      <point x="806" y="661"/>
      <point x="799" y="661"/>
      <point x="791" y="660" type="curve" smooth="yes"/>
      <point x="708" y="650"/>
      <point x="639" y="569"/>
      <point x="572" y="398" type="curve"/>
      <point x="587" y="454"/>
      <point x="595" y="500"/>
      <point x="595" y="537" type="curve" smooth="yes"/>
      <point x="595" y="615"/>
      <point x="562" y="650"/>
      <point x="505" y="650" type="curve" smooth="yes"/>
      <point x="495" y="650" type="line" smooth="yes"/>
      <point x="416" y="645"/>
      <point x="331" y="598"/>
      <point x="241" y="388" type="curve"/>
      <point x="263" y="463"/>
      <point x="278" y="523"/>
      <point x="278" y="567" type="curve" smooth="yes"/>
      <point x="278" y="623"/>
      <point x="251" y="657"/>
      <point x="179" y="657" type="curve" smooth="yes"/>
      <point x="106" y="657"/>
      <point x="11" y="596"/>
      <point x="-9" y="510" type="curve" smooth="yes"/>
      <point x="-9" y="508"/>
      <point x="-10" y="506"/>
      <point x="-10" y="504" type="curve" smooth="yes"/>
      <point x="-10" y="469"/>
      <point x="52" y="433"/>
      <point x="58" y="433" type="curve"/>
      <point x="86" y="494"/>
      <point x="126" y="571"/>
    </contour>
  </outline>
</glyph>
<glyph name="N" format="1">
  <advance width="626"/>
  <unicode hex="004E"/>
  <outline>
    <contour>
      <point x="547" y="708" type="move" name="top"/>
    </contour>
    <contour>
      <point x="661" y="566" type="curve" smooth="yes"/>
      <point x="661" y="635"/>
      <point x="617" y="674"/>
      <point x="538" y="674" type="curve" smooth="yes"/>
      <point x="401.667" y="674"/>
      <point x="316.745" y="560.766"/>
      <point x="266.96" y="450.319" type="curve"/>
      <point x="279.996" y="490.743"/>
      <point x="289" y="532.392"/>
      <point x="289" y="569" type="curve" smooth="yes"/>
      <point x="289" y="631"/>
      <point x="264" y="677"/>
      <point x="189" y="677" type="curve" smooth="yes"/>
      <point x="105" y="677"/>
      <point x="1" y="620"/>
      <point x="-25" y="493" type="curve" smooth="yes"/>
      <point x="-26" y="486"/>
      <point x="-27" y="480"/>
      <point x="-27" y="475" type="curve" smooth="yes"/>
      <point x="-27" y="432"/>
      <point x="13" y="426"/>
      <point x="49" y="424" type="curve"/>
      <point x="83" y="544"/>
      <point x="131" y="589"/>
      <point x="174" y="589" type="curve" smooth="yes"/>
      <point x="195" y="589"/>
      <point x="208" y="572"/>
      <point x="208" y="535" type="curve" smooth="yes"/>
      <point x="208" y="493"/>
      <point x="191" y="426"/>
      <point x="150" y="328" type="curve" smooth="yes"/>
      <point x="96" y="201"/>
      <point x="6" y="-9"/>
      <point x="-6" y="-41" type="curve"/>
      <point x="4" y="-48"/>
      <point x="32" y="-58"/>
      <point x="68" y="-58" type="curve" smooth="yes"/>
      <point x="104" y="-58"/>
      <point x="118" y="-34"/>
      <point x="144" y="30" type="curve" smooth="yes"/>
      <point x="247" y="260" type="line" smooth="yes"/>
      <point x="324" y="438"/>
      <point x="395" y="564"/>
      <point x="517" y="564" type="curve" smooth="yes"/>
      <point x="539" y="564"/>
      <point x="554" y="549"/>
      <point x="554" y="528" type="curve" smooth="yes"/>
      <point x="554" y="438"/>
      <point x="436" y="286"/>
      <point x="407" y="101" type="curve" smooth="yes"/>
      <point x="406" y="94"/>
      <point x="405" y="86"/>
      <point x="405" y="79" type="curve" smooth="yes"/>
      <point x="405" y="4"/>
      <point x="469" y="-43"/>
      <point x="543" y="-43" type="curve" smooth="yes"/>
      <point x="594" y="-43"/>
      <point x="650" y="-20"/>
      <point x="694" y="31" type="curve" smooth="yes"/>
      <point x="709" y="49"/>
      <point x="716" y="66"/>
      <point x="716" y="80" type="curve" smooth="yes"/>
      <point x="716" y="101"/>
      <point x="701" y="116"/>
      <point x="683" y="116" type="curve" smooth="yes"/>
      <point x="672" y="116"/>
      <point x="659" y="110"/>
      <point x="647" y="97" type="curve" smooth="yes"/>
      <point x="624" y="70"/>
      <point x="592" y="57"/>
      <point x="566" y="57" type="curve" smooth="yes"/>
      <point x="539" y="57"/>
      <point x="517" y="71"/>
      <point x="517" y="100" type="curve" smooth="yes"/>
      <point x="517" y="105"/>
      <point x="518" y="110"/>
      <point x="519" y="115" type="curve" smooth="yes"/>
      <point x="557" y="300"/>
      <point x="661" y="434"/>
    </contour>
  </outline>
</glyph>
<glyph name="P" format="1">
  <advance width="579"/>
  <unicode hex="0050"/>
  <outline>
    <contour>
      <point x="477" y="708" type="move" name="top"/>
    </contour>
    <contour>
      <point x="728" y="507" type="curve" smooth="yes"/>
      <point x="728" y="638"/>
      <point x="621" y="726"/>
      <point x="456" y="726" type="curve" smooth="yes"/>
      <point x="438" y="726"/>
      <point x="419" y="725"/>
      <point x="399" y="723" type="curve" smooth="yes"/>
      <point x="176" y="698"/>
      <point x="71" y="471"/>
      <point x="71" y="198" type="curve" smooth="yes"/>
      <point x="71" y="23"/>
      <point x="110" y="-129"/>
      <point x="226" y="-129" type="curve" smooth="yes"/>
      <point x="337" y="-129"/>
      <point x="369" y="-34"/>
      <point x="385" y="97" type="curve" smooth="yes"/>
      <point x="403" y="240" type="line"/>
      <point x="603" y="255"/>
      <point x="728" y="375"/>
    </contour>
    <contour>
      <point x="472" y="485" type="curve" smooth="yes"/>
      <point x="472" y="513"/>
      <point x="447" y="520"/>
      <point x="425" y="520" type="curve" smooth="yes"/>
      <point x="373" y="520"/>
      <point x="355" y="478"/>
      <point x="324" y="328" type="curve"/>
      <point x="313" y="331"/>
      <point x="280" y="344"/>
      <point x="254" y="358" type="curve" smooth="yes"/>
      <point x="251" y="360"/>
      <point x="248" y="361"/>
      <point x="245" y="361" type="curve" smooth="yes"/>
      <point x="233" y="361"/>
      <point x="227" y="344"/>
      <point x="227" y="328" type="curve" smooth="yes"/>
      <point x="227" y="278"/>
      <point x="261" y="274"/>
      <point x="312" y="254" type="curve"/>
      <point x="288" y="67"/>
      <point x="298" y="-45"/>
      <point x="238" y="-45" type="curve" smooth="yes"/>
      <point x="175" y="-45"/>
      <point x="170" y="103"/>
      <point x="170" y="205" type="curve" smooth="yes"/>
      <point x="170" y="383"/>
      <point x="218" y="602"/>
      <point x="392" y="625" type="curve" smooth="yes"/>
      <point x="408" y="627"/>
      <point x="424" y="628"/>
      <point x="438" y="628" type="curve" smooth="yes"/>
      <point x="540" y="628"/>
      <point x="601" y="577"/>
      <point x="601" y="495" type="curve" smooth="yes"/>
      <point x="601" y="410"/>
      <point x="529" y="337"/>
      <point x="412" y="319" type="curve"/>
      <point x="433" y="416"/>
      <point x="472" y="451"/>
    </contour>
  </outline>
</glyph>
<glyph name="S" format="1">
  <advance width="681"/>
  <unicode hex="0053"/>
  <outline>
    <contour>
      <point x="507" y="708" type="move" name="top"/>
    </contour>
    <contour>
      <point x="342" y="-89" type="move" name="bot"/>
    </contour>
    <contour>
      <point x="342" y="-26" type="curve" smooth="yes"/>
      <point x="226" y="-26"/>
      <point x="162" y="5"/>
      <point x="162" y="90" type="curve" smooth="yes"/>
      <point x="162" y="135"/>
      <point x="190" y="141"/>
      <point x="190" y="173" type="curve" smooth="yes"/>
      <point x="190" y="192"/>
      <point x="177" y="203"/>
      <point x="157" y="203" type="curve" smooth="yes"/>
      <point x="88" y="203"/>
      <point x="49" y="142"/>
      <point x="49" y="87" type="curve" smooth="yes"/>
      <point x="49" y="79" type="line" smooth="yes"/>
      <point x="58" y="-56"/>
      <point x="191" y="-114"/>
      <point x="338" y="-114" type="curve" smooth="yes"/>
      <point x="515" y="-114"/>
      <point x="647" y="-41"/>
      <point x="647" y="91" type="curve" smooth="yes"/>
      <point x="647" y="211"/>
      <point x="571" y="243"/>
      <point x="447" y="309" type="curve" smooth="yes"/>
      <point x="314" y="380"/>
      <point x="269" y="392"/>
      <point x="269" y="454" type="curve" smooth="yes"/>
      <point x="269" y="506"/>
      <point x="320" y="551"/>
      <point x="425" y="551" type="curve" smooth="yes"/>
      <point x="516" y="551"/>
      <point x="563" y="522"/>
      <point x="563" y="474" type="curve" smooth="yes"/>
      <point x="563" y="444"/>
      <point x="550" y="422"/>
      <point x="531" y="405" type="curve" smooth="yes"/>
      <point x="523" y="395"/>
      <point x="519" y="385"/>
      <point x="519" y="375" type="curve" smooth="yes"/>
      <point x="519" y="352"/>
      <point x="540" y="332"/>
      <point x="567" y="332" type="curve" smooth="yes"/>
      <point x="590" y="332"/>
      <point x="607" y="342"/>
      <point x="625" y="360" type="curve" smooth="yes"/>
      <point x="649" y="386"/>
      <point x="670" y="425"/>
      <point x="671" y="474" type="curve" smooth="yes"/>
      <point x="668" y="579"/>
      <point x="566" y="632"/>
      <point x="433" y="632" type="curve" smooth="yes"/>
      <point x="292" y="632"/>
      <point x="142" y="569"/>
      <point x="142" y="446" type="curve" smooth="yes"/>
      <point x="142" y="336"/>
      <point x="220" y="305"/>
      <point x="317" y="253" type="curve" smooth="yes"/>
      <point x="419" y="198"/>
      <point x="520" y="167"/>
      <point x="520" y="84" type="curve" smooth="yes"/>
      <point x="520" y="19"/>
      <point x="472" y="-26"/>
    </contour>
  </outline>
</glyph>
<glyph name="T" format="1">
  <advance width="489"/>
  <unicode hex="0054"/>
  <outline>
    <contour>
      <point x="517" y="708" type="move" name="top"/>
    </contour>
    <contour>
      <point x="320" y="-104" type="move" name="bot"/>
    </contour>
    <contour>
      <point x="254" y="-24" type="curve" smooth="yes"/>
      <point x="254" y="-61"/>
      <point x="270" y="-86"/>
      <point x="312" y="-86" type="curve" smooth="yes"/>
      <point x="344" y="-86"/>
      <point x="368" y="-67"/>
      <point x="377" y="-6" type="curve" smooth="yes"/>
      <point x="387.809" y="64.7474"/>
      <point x="431.445" y="282.252"/>
      <point x="497.472" y="545.951" type="curve"/>
      <point x="570.887" y="539.868"/>
      <point x="664.143" y="535"/>
      <point x="729" y="535" type="curve" smooth="yes"/>
      <point x="768" y="535"/>
      <point x="796" y="536"/>
      <point x="803" y="541" type="curve" smooth="yes"/>
      <point x="817" y="550"/>
      <point x="839" y="558"/>
      <point x="839" y="586" type="curve" smooth="yes"/>
      <point x="839" y="615"/>
      <point x="824" y="626"/>
      <point x="789" y="627" type="curve" smooth="yes"/>
      <point x="619" y="627"/>
      <point x="477" y="647"/>
      <point x="350" y="647" type="curve" smooth="yes"/>
      <point x="320" y="647"/>
      <point x="291" y="646"/>
      <point x="263" y="643" type="curve" smooth="yes"/>
      <point x="166" y="627"/>
      <point x="57" y="614"/>
      <point x="1" y="454" type="curve" smooth="yes"/>
      <point x="-1" y="449"/>
      <point x="-1" y="445"/>
      <point x="-1" y="441" type="curve" smooth="yes"/>
      <point x="-1" y="423"/>
      <point x="15" y="415"/>
      <point x="31" y="415" type="curve" smooth="yes"/>
      <point x="47" y="415"/>
      <point x="64" y="422"/>
      <point x="69" y="432" type="curve" smooth="yes"/>
      <point x="96" y="475"/>
      <point x="155" y="553"/>
      <point x="374" y="553" type="curve" smooth="yes"/>
      <point x="388.934" y="553"/>
      <point x="404.611" y="552.504"/>
      <point x="421.155" y="551.637" type="curve"/>
      <point x="342.757" y="331.591"/>
      <point x="297.424" y="181.624"/>
      <point x="274" y="85" type="curve" smooth="yes"/>
      <point x="264" y="46"/>
      <point x="254" y="7"/>
    </contour>
  </outline>
</glyph>
<glyph name="X" format="1">
  <advance width="589"/>
  <unicode hex="0058"/>
  <outline>
    <contour>
      <point x="10" y="413" type="curve" smooth="yes"/>
      <point x="69" y="469"/>
      <point x="102" y="491"/>
      <point x="123" y="491" type="curve" smooth="yes"/>
      <point x="144" y="491"/>
      <point x="153" y="469"/>
      <point x="166" y="437" type="curve" smooth="yes"/>
      <point x="259.368" y="211.228" type="line"/>
      <point x="236.007" y="182.262"/>
      <point x="213.681" y="154.939"/>
      <point x="193" y="130" type="curve" smooth="yes"/>
      <point x="115" y="38"/>
      <point x="60" y="10"/>
      <point x="-21" y="10" type="curve" smooth="yes"/>
      <point x="-45" y="10"/>
      <point x="-58" y="-16"/>
      <point x="-58" y="-42" type="curve" smooth="yes"/>
      <point x="-58" y="-69"/>
      <point x="-44" y="-97"/>
      <point x="-13" y="-97" type="curve" smooth="yes"/>
      <point x="59" y="-97"/>
      <point x="111" y="-89"/>
      <point x="224" y="58" type="curve" smooth="yes"/>
      <point x="245.758" y="85.7369"/>
      <point x="267.35" y="113.17"/>
      <point x="288.754" y="140.172" type="curve"/>
      <point x="343" y="9" type="line" smooth="yes"/>
      <point x="374" y="-64"/>
      <point x="407" y="-95"/>
      <point x="445" y="-95" type="curve" smooth="yes"/>
      <point x="480" y="-95"/>
      <point x="519" y="-68"/>
      <point x="564" y="-24" type="curve" smooth="yes"/>
      <point x="674" y="83" type="line" smooth="yes"/>
      <point x="679" y="89"/>
      <point x="681" y="95"/>
      <point x="681" y="101" type="curve" smooth="yes"/>
      <point x="681" y="119"/>
      <point x="662" y="135"/>
      <point x="649" y="135" type="curve" smooth="yes"/>
      <point x="646" y="135"/>
      <point x="643" y="134"/>
      <point x="641" y="132" type="curve" smooth="yes"/>
      <point x="531" y="30" type="line" smooth="yes"/>
      <point x="517" y="16"/>
      <point x="505" y="11"/>
      <point x="495" y="11" type="curve" smooth="yes"/>
      <point x="471" y="11"/>
      <point x="458" y="44"/>
      <point x="445" y="77" type="curve" smooth="yes"/>
      <point x="379.895" y="253.65" type="line"/>
      <point x="454.455" y="344.974"/>
      <point x="526.175" y="428.39"/>
      <point x="594" y="498" type="curve" smooth="yes"/>
      <point x="625" y="529"/>
      <point x="636" y="555"/>
      <point x="636" y="574" type="curve" smooth="yes"/>
      <point x="636" y="597"/>
      <point x="619" y="610"/>
      <point x="598" y="610" type="curve" smooth="yes"/>
      <point x="581" y="610"/>
      <point x="561" y="602"/>
      <point x="546" y="584" type="curve" smooth="yes"/>
      <point x="487.237" y="503.134"/>
      <point x="418.884" y="413.258"/>
      <point x="352.377" y="328.317" type="curve"/>
      <point x="295" y="484" type="line" smooth="yes"/>
      <point x="273" y="542"/>
      <point x="231" y="578"/>
      <point x="174" y="578" type="curve" smooth="yes"/>
      <point x="119" y="578"/>
      <point x="50" y="544"/>
      <point x="-26" y="466" type="curve" smooth="yes"/>
      <point x="-35" y="457"/>
      <point x="-38" y="448"/>
      <point x="-38" y="439" type="curve" smooth="yes"/>
      <point x="-38" y="421"/>
      <point x="-22" y="406"/>
      <point x="-6" y="406" type="curve" smooth="yes"/>
      <point x="0" y="406"/>
      <point x="5" y="408"/>
    </contour>
  </outline>
</glyph>
<glyph name="backslash" format="1">
  <advance width="426"/>
  <unicode hex="005C"/>
  <outline>
    <contour>
      <point x="359" y="-12" type="curve" smooth="yes"/>
      <point x="382" y="-12"/>
      <point x="395" y="7"/>
      <point x="395" y="26" type="curve" smooth="yes"/>
      <point x="395" y="38"/>
      <point x="391" y="52"/>
      <point x="383" y="69" type="curve" smooth="yes"/>
      <point x="148" y="583" type="line" smooth="yes"/>
      <point x="132" y="619"/>
      <point x="124" y="640"/>
      <point x="104" y="640" type="curve" smooth="yes"/>
      <point x="79" y="640"/>
      <point x="61" y="622"/>
      <point x="61" y="605" type="curve" smooth="yes"/>
      <point x="61" y="592"/>
      <point x="67" y="575"/>
      <point x="77" y="553" type="curve" smooth="yes"/>
      <point x="309" y="42" type="line" smooth="yes"/>
      <point x="324" y="10"/>
      <point x="339" y="-12"/>
    </contour>
  </outline>
</glyph>
<glyph name="grave" format="1">
  <advance width="208"/>
  <unicode hex="0060"/>
  <outline>
    <contour>
      <point x="117" y="343" type="move" name="_top"/>
    </contour>
    <contour>
      <point x="116" y="403" type="curve" smooth="yes"/>
      <point x="127" y="403"/>
      <point x="135" y="410"/>
      <point x="135" y="420" type="curve" smooth="yes"/>
      <point x="135" y="426"/>
      <point x="132" y="433"/>
      <point x="125" y="442" type="curve" smooth="yes"/>
      <point x="110" y="461"/>
      <point x="44" y="555"/>
      <point x="31" y="573" type="curve" smooth="yes"/>
      <point x="20" y="588"/>
      <point x="7" y="594"/>
      <point x="-6" y="594" type="curve" smooth="yes"/>
      <point x="-30" y="594"/>
      <point x="-52" y="572"/>
      <point x="-52" y="549" type="curve" smooth="yes"/>
      <point x="-52" y="539"/>
      <point x="-47" y="528"/>
      <point x="-37" y="519" type="curve" smooth="yes"/>
      <point x="-22" y="506"/>
      <point x="74" y="429"/>
      <point x="97" y="410" type="curve" smooth="yes"/>
      <point x="103" y="405"/>
      <point x="109" y="403"/>
    </contour>
  </outline>
</glyph>
<glyph name="o" format="1">
  <advance width="346"/>
  <unicode hex="006F"/>
  <outline>
    <contour>
      <point x="257" y="343" type="move" name="top"/>
    </contour>
    <contour>
      <point x="175" y="15" type="move" name="ogonek"/>
    </contour>
    <contour>
      <point x="182" y="66" type="curve" smooth="yes"/>
      <point x="144" y="66"/>
      <point x="126" y="99"/>
      <point x="126" y="139" type="curve" smooth="yes"/>
      <point x="126" y="192"/>
      <point x="159" y="256"/>
      <point x="217" y="256" type="curve" smooth="yes"/>
      <point x="218" y="256" type="line" smooth="yes"/>
      <point x="229" y="256"/>
      <point x="236" y="253"/>
      <point x="236" y="253" type="curve"/>
      <point x="216" y="228"/>
      <point x="206" y="203"/>
      <point x="206" y="182" type="curve" smooth="yes"/>
      <point x="206" y="158"/>
      <point x="219" y="138"/>
      <point x="246" y="128" type="curve"/>
      <point x="241" y="99"/>
      <point x="223" y="66"/>
    </contour>
    <contour>
      <point x="44" y="126" type="curve" smooth="yes"/>
      <point x="44" y="49"/>
      <point x="98" y="-6"/>
      <point x="174" y="-6" type="curve" smooth="yes"/>
      <point x="264" y="-6"/>
      <point x="299" y="63"/>
      <point x="317" y="110" type="curve"/>
      <point x="399" y="137"/>
      <point x="440" y="167"/>
      <point x="462" y="196" type="curve" smooth="yes"/>
      <point x="464" y="199"/>
      <point x="465" y="203"/>
      <point x="465" y="207" type="curve" smooth="yes"/>
      <point x="465" y="223"/>
      <point x="450" y="243"/>
      <point x="435" y="243" type="curve" smooth="yes"/>
      <point x="430" y="243"/>
      <point x="425" y="241"/>
      <point x="421" y="237" type="curve" smooth="yes"/>
      <point x="404" y="220"/>
      <point x="368" y="194"/>
      <point x="328" y="180" type="curve"/>
      <point x="330" y="191"/>
      <point x="331" y="202"/>
      <point x="331" y="212" type="curve" smooth="yes"/>
      <point x="331" y="278"/>
      <point x="291" y="330"/>
      <point x="222" y="330" type="curve" smooth="yes"/>
      <point x="119" y="330"/>
      <point x="44" y="234"/>
    </contour>
  </outline>
</glyph>
<glyph name="r" format="1">
  <advance width="282"/>
  <unicode hex="0072"/>
  <outline>
    <contour>
      <point x="257" y="343" type="move" name="top"/>
    </contour>
    <contour>
      <point x="75" y="0" type="curve" smooth="yes"/>
      <point x="106" y="0"/>
      <point x="118" y="13"/>
      <point x="127" y="30" type="curve" smooth="yes"/>
      <point x="158.912" y="117.093"/>
      <point x="184.636" y="168.826"/>
      <point x="200.939" y="205.768" type="curve"/>
      <point x="199.666" y="199.485"/>
      <point x="199" y="193.552"/>
      <point x="199" y="188" type="curve" smooth="yes"/>
      <point x="199" y="157"/>
      <point x="219" y="138"/>
      <point x="273" y="138" type="curve" smooth="yes"/>
      <point x="329" y="138"/>
      <point x="376" y="165"/>
      <point x="411" y="193" type="curve" smooth="yes"/>
      <point x="413" y="194"/>
      <point x="414" y="196"/>
      <point x="414" y="199" type="curve" smooth="yes"/>
      <point x="414" y="214"/>
      <point x="389" y="244"/>
      <point x="376" y="244" type="curve" smooth="yes"/>
      <point x="375" y="244" type="line"/>
      <point x="330" y="226"/>
      <point x="300" y="217"/>
      <point x="286" y="217" type="curve" smooth="yes"/>
      <point x="280" y="217"/>
      <point x="277" y="219"/>
      <point x="277" y="222" type="curve" smooth="yes"/>
      <point x="277" y="223"/>
      <point x="278" y="225"/>
      <point x="279" y="227" type="curve" smooth="yes"/>
      <point x="291" y="256"/>
      <point x="299" y="279"/>
      <point x="299" y="296" type="curve" smooth="yes"/>
      <point x="299" y="318"/>
      <point x="286" y="329"/>
      <point x="249" y="329" type="curve" smooth="yes"/>
      <point x="213.977" y="329"/>
      <point x="139.029" y="220.268"/>
      <point x="110.277" y="151.561" type="curve"/>
      <point x="122.263" y="188.811"/>
      <point x="136.074" y="258.908"/>
      <point x="142" y="286" type="curve" smooth="yes"/>
      <point x="143" y="289"/>
      <point x="143" y="293"/>
      <point x="143" y="296" type="curve" smooth="yes"/>
      <point x="143" y="314"/>
      <point x="129" y="330"/>
      <point x="109" y="330" type="curve" smooth="yes"/>
      <point x="81" y="330"/>
      <point x="65" y="315"/>
      <point x="52" y="281" type="curve" smooth="yes"/>
      <point x="35" y="223"/>
      <point x="26" y="157"/>
      <point x="26" y="91" type="curve" smooth="yes"/>
      <point x="26" y="81" type="line" smooth="yes"/>
      <point x="26" y="71" type="line" smooth="yes"/>
      <point x="26" y="36"/>
      <point x="37" y="0"/>
    </contour>
  </outline>
</glyph>
<glyph name="v" format="1">
  <advance width="348"/>
  <unicode hex="0076"/>
  <outline>
    <contour>
      <point x="510" y="249" type="curve" smooth="yes"/>
      <point x="513" y="254"/>
      <point x="514" y="259"/>
      <point x="514" y="265" type="curve" smooth="yes"/>
      <point x="514" y="286"/>
      <point x="498" y="307"/>
      <point x="480" y="307" type="curve" smooth="yes"/>
      <point x="473" y="307"/>
      <point x="465" y="303"/>
      <point x="459" y="295" type="curve" smooth="yes"/>
      <point x="429.845" y="255.104"/>
      <point x="378.911" y="225.804"/>
      <point x="326.971" y="214.325" type="curve"/>
      <point x="335.746" y="237.955"/>
      <point x="343.48" y="262.92"/>
      <point x="350" y="289" type="curve" smooth="yes"/>
      <point x="351" y="294"/>
      <point x="352" y="299"/>
      <point x="352" y="303" type="curve" smooth="yes"/>
      <point x="352" y="324"/>
      <point x="338" y="336"/>
      <point x="319" y="336" type="curve" smooth="yes"/>
      <point x="284" y="336"/>
      <point x="235" y="295"/>
      <point x="235" y="197" type="curve" smooth="yes"/>
      <point x="235" y="181" type="line" smooth="yes"/>
      <point x="199.539" y="103.872"/>
      <point x="163.292" y="80.9736"/>
      <point x="156.916" y="76.7699" type="curve"/>
      <point x="157" y="77.1239"/>
      <point x="157" y="77.5619"/>
      <point x="157" y="78" type="curve" smooth="yes"/>
      <point x="157" y="86"/>
      <point x="141" y="121"/>
      <point x="141" y="187" type="curve" smooth="yes"/>
      <point x="141" y="216"/>
      <point x="144" y="251"/>
      <point x="153" y="292" type="curve" smooth="yes"/>
      <point x="153" y="294"/>
      <point x="154" y="296"/>
      <point x="154" y="298" type="curve" smooth="yes"/>
      <point x="154" y="319"/>
      <point x="129" y="334"/>
      <point x="106" y="334" type="curve" smooth="yes"/>
      <point x="89" y="334"/>
      <point x="72" y="326"/>
      <point x="65" y="305" type="curve" smooth="yes"/>
      <point x="49" y="252"/>
      <point x="42" y="205"/>
      <point x="42" y="163" type="curve" smooth="yes"/>
      <point x="42" y="56"/>
      <point x="87" y="-10"/>
      <point x="135" y="-10" type="curve" smooth="yes"/>
      <point x="143" y="-10"/>
      <point x="152" y="-8"/>
      <point x="160" y="-4" type="curve" smooth="yes"/>
      <point x="209.842" y="19.9978"/>
      <point x="256.654" y="70.8783"/>
      <point x="293.681" y="140.021" type="curve"/>
      <point x="372.468" y="141.261"/>
      <point x="480.338" y="196.597"/>
    </contour>
  </outline>
</glyph>
<glyph name="z" format="1">
  <advance width="224"/>
  <unicode hex="007A"/>
  <outline>
    <contour>
      <point x="207" y="343" type="move" name="top"/>
    </contour>
    <contour>
      <point x="296" y="64" type="curve" smooth="yes"/>
      <point x="305" y="71"/>
      <point x="309" y="83"/>
      <point x="309" y="95" type="curve" smooth="yes"/>
      <point x="309" y="111"/>
      <point x="302" y="126"/>
      <point x="293" y="126" type="curve" smooth="yes"/>
      <point x="291" y="126"/>
      <point x="289" y="125"/>
      <point x="287" y="124" type="curve" smooth="yes"/>
      <point x="209" y="78"/>
      <point x="158" y="64"/>
      <point x="126" y="64" type="curve" smooth="yes"/>
      <point x="92" y="64"/>
      <point x="80" y="80"/>
      <point x="79" y="91" type="curve"/>
      <point x="94" y="100"/>
      <point x="226" y="213"/>
      <point x="240" y="224" type="curve" smooth="yes"/>
      <point x="258" y="242"/>
      <point x="257" y="273"/>
      <point x="257" y="287" type="curve" smooth="yes"/>
      <point x="257" y="299"/>
      <point x="243" y="319"/>
      <point x="216" y="319" type="curve" smooth="yes"/>
      <point x="199" y="319"/>
      <point x="117" y="318"/>
      <point x="58" y="318" type="curve" smooth="yes"/>
      <point x="35" y="318"/>
      <point x="27" y="303"/>
      <point x="27" y="287" type="curve" smooth="yes"/>
      <point x="27" y="267"/>
      <point x="44" y="252"/>
      <point x="47" y="245" type="curve"/>
      <point x="71" y="245"/>
      <point x="147" y="249"/>
      <point x="188" y="255" type="curve"/>
      <point x="39" y="145" type="line" smooth="yes"/>
      <point x="22" y="133"/>
      <point x="-2" y="107"/>
      <point x="-2" y="72" type="curve" smooth="yes"/>
      <point x="-2" y="24"/>
      <point x="44" y="-5"/>
      <point x="109" y="-5" type="curve" smooth="yes"/>
      <point x="164" y="-5"/>
      <point x="232" y="16"/>
    </contour>
  </outline>
</glyph>
<glyph name="bar" format="1">
  <advance width="460"/>
  <unicode hex="007C"/>
  <outline>
    <contour>
      <point x="191" y="-3" type="line" smooth="yes"/>
      <point x="190" y="-8"/>
      <point x="189" y="-13"/>
      <point x="189" y="-18" type="curve" smooth="yes"/>
      <point x="189" y="-45"/>
      <point x="210" y="-60"/>
      <point x="231" y="-60" type="curve" smooth="yes"/>
      <point x="250" y="-60"/>
      <point x="269" y="-48"/>
      <point x="275" y="-22" type="curve" smooth="yes"/>
      <point x="439" y="649" type="line" smooth="yes"/>
      <point x="441" y="656"/>
      <point x="441" y="661"/>
      <point x="441" y="667" type="curve" smooth="yes"/>
      <point x="441" y="694"/>
      <point x="425" y="709"/>
      <point x="407" y="709" type="curve" smooth="yes"/>
      <point x="389" y="709"/>
      <point x="369" y="694"/>
      <point x="361" y="661" type="curve" smooth="yes"/>
    </contour>
  </outline>
</glyph>
<glyph name="braceright" format="1">
  <advance width="426"/>
  <unicode hex="007D"/>
  <outline>
    <contour>
      <point x="160" y="569" type="curve" smooth="yes"/>
      <point x="167" y="569"/>
      <point x="174" y="570"/>
      <point x="180" y="570" type="curve" smooth="yes"/>
      <point x="237" y="570"/>
      <point x="245" y="550"/>
      <point x="245" y="497" type="curve" smooth="yes"/>
      <point x="245" y="448"/>
      <point x="230" y="393"/>
      <point x="230" y="338" type="curve" smooth="yes"/>
      <point x="230" y="299.976"/>
      <point x="253.679" y="273.973"/>
      <point x="284.766" y="258.012" type="curve"/>
      <point x="244.709" y="245.225"/>
      <point x="213.683" y="217.635"/>
      <point x="211" y="168" type="curve" smooth="yes"/>
      <point x="202" y="0"/>
      <point x="193" y="-41"/>
      <point x="161" y="-48" type="curve" smooth="yes"/>
      <point x="154" y="-48" type="line" smooth="yes"/>
      <point x="125" y="-48"/>
      <point x="96" y="-38"/>
      <point x="78" y="-33" type="curve" smooth="yes"/>
      <point x="74" y="-31"/>
      <point x="70" y="-31"/>
      <point x="67" y="-31" type="curve" smooth="yes"/>
      <point x="50" y="-31"/>
      <point x="40" y="-48"/>
      <point x="40" y="-64" type="curve" smooth="yes"/>
      <point x="40" y="-74"/>
      <point x="44" y="-84"/>
      <point x="53" y="-89" type="curve" smooth="yes"/>
      <point x="76" y="-103"/>
      <point x="114" y="-116"/>
      <point x="154" y="-116" type="curve" smooth="yes"/>
      <point x="160" y="-116"/>
      <point x="167" y="-116"/>
      <point x="173" y="-115" type="curve" smooth="yes"/>
      <point x="271" y="-109"/>
      <point x="295" y="-28"/>
      <point x="305" y="146" type="curve" smooth="yes"/>
      <point x="308" y="193"/>
      <point x="318" y="211"/>
      <point x="355" y="211" type="curve" smooth="yes"/>
      <point x="383" y="211"/>
      <point x="399" y="221"/>
      <point x="399" y="253" type="curve" smooth="yes"/>
      <point x="399" y="274"/>
      <point x="389" y="293"/>
      <point x="371" y="294" type="curve" smooth="yes"/>
      <point x="330" y="296"/>
      <point x="326" y="312"/>
      <point x="326" y="347" type="curve" smooth="yes"/>
      <point x="326" y="403"/>
      <point x="340" y="454"/>
      <point x="340" y="504" type="curve" smooth="yes"/>
      <point x="340" y="590"/>
      <point x="303" y="636"/>
      <point x="203" y="636" type="curve" smooth="yes"/>
      <point x="187" y="636"/>
      <point x="171" y="635"/>
      <point x="152" y="633" type="curve" smooth="yes"/>
      <point x="138" y="632"/>
      <point x="131" y="618"/>
      <point x="131" y="604" type="curve" smooth="yes"/>
      <point x="131" y="587"/>
      <point x="141" y="569"/>
    </contour>
  </outline>
</glyph>
<glyph name="yen" format="1">
  <advance width="508"/>
  <unicode hex="00A5"/>
  <outline>
    <contour>
      <point x="304" y="24" type="curve" smooth="yes"/>
      <point x="339" y="133" type="line"/>
      <point x="438" y="133" type="line" smooth="yes"/>
      <point x="468" y="133"/>
      <point x="486" y="139"/>
      <point x="486" y="166" type="curve" smooth="yes"/>
      <point x="486" y="179"/>
      <point x="473" y="185"/>
      <point x="455" y="185" type="curve" smooth="yes"/>
      <point x="354" y="185" type="line"/>
      <point x="368" y="227" type="line"/>
      <point x="459" y="227" type="line" smooth="yes"/>
      <point x="492" y="227"/>
      <point x="503" y="236"/>
      <point x="503" y="256" type="curve" smooth="yes"/>
      <point x="503" y="276"/>
      <point x="483" y="277"/>
      <point x="465" y="277" type="curve" smooth="yes"/>
      <point x="415" y="277" type="line"/>
      <point x="572" y="502" type="line" smooth="yes"/>
      <point x="580" y="514"/>
      <point x="584" y="525"/>
      <point x="584" y="535" type="curve" smooth="yes"/>
      <point x="584" y="561"/>
      <point x="560" y="581"/>
      <point x="534" y="581" type="curve" smooth="yes"/>
      <point x="517" y="581"/>
      <point x="499" y="572"/>
      <point x="486" y="552" type="curve" smooth="yes"/>
      <point x="337" y="320" type="line"/>
      <point x="272" y="553" type="line" smooth="yes"/>
      <point x="265" y="577"/>
      <point x="246" y="588"/>
      <point x="225" y="588" type="curve" smooth="yes"/>
      <point x="198" y="588"/>
      <point x="169" y="569"/>
      <point x="169" y="539" type="curve" smooth="yes"/>
      <point x="169" y="534"/>
      <point x="169" y="529"/>
      <point x="171" y="524" type="curve" smooth="yes"/>
      <point x="245" y="281" type="line"/>
      <point x="170" y="281" type="line" smooth="yes"/>
      <point x="147" y="281"/>
      <point x="124" y="280"/>
      <point x="124" y="251" type="curve" smooth="yes"/>
      <point x="124" y="236"/>
      <point x="140" y="227"/>
      <point x="166" y="227" type="curve" smooth="yes"/>
      <point x="255" y="227" type="line"/>
      <point x="242" y="185" type="line"/>
      <point x="152" y="185" type="line" smooth="yes"/>
      <point x="126" y="185"/>
      <point x="111" y="179"/>
      <point x="111" y="158" type="curve" smooth="yes"/>
      <point x="111" y="140"/>
      <point x="128" y="133"/>
      <point x="145" y="133" type="curve" smooth="yes"/>
      <point x="226" y="133" type="line"/>
      <point x="202" y="51" type="line" smooth="yes"/>
      <point x="200" y="45"/>
      <point x="199" y="39"/>
      <point x="199" y="34" type="curve" smooth="yes"/>
      <point x="199" y="5"/>
      <point x="226" y="-10"/>
      <point x="252" y="-10" type="curve" smooth="yes"/>
      <point x="274" y="-10"/>
      <point x="296" y="1"/>
    </contour>
  </outline>
</glyph>
<glyph name="dieresis" format="1">
  <advance width="350"/>
  <unicode hex="00A8"/>
  <outline>
    <contour>
      <point x="102" y="343" type="move" name="_top"/>
    </contour>
    <contour>
      <point x="194" y="394" type="curve" smooth="yes"/>
      <point x="228" y="394"/>
      <point x="248" y="413"/>
      <point x="248" y="444" type="curve" smooth="yes"/>
      <point x="248" y="469"/>
      <point x="230" y="484"/>
      <point x="201" y="484" type="curve" smooth="yes"/>
      <point x="169" y="484"/>
      <point x="150" y="465"/>
      <point x="150" y="434" type="curve" smooth="yes"/>
      <point x="150" y="409"/>
      <point x="166" y="394"/>
    </contour>
    <contour>
      <point x="2" y="394" type="curve" smooth="yes"/>
      <point x="36" y="394"/>
      <point x="55" y="413"/>
      <point x="55" y="444" type="curve" smooth="yes"/>
      <point x="55" y="469"/>
      <point x="38" y="484"/>
      <point x="9" y="484" type="curve" smooth="yes"/>
      <point x="-23" y="484"/>
      <point x="-41" y="465"/>
      <point x="-41" y="434" type="curve" smooth="yes"/>
      <point x="-41" y="409"/>
      <point x="-25" y="394"/>
    </contour>
  </outline>
</glyph>
<glyph name="cedilla" format="1">
  <advance width="404"/>
  <unicode hex="00B8"/>
  <outline>
    <contour>
      <point x="241" y="77" type="move" name="_bot"/>
    </contour>
    <contour>
      <point x="184" y="-125" type="curve" smooth="yes"/>
      <point x="229" y="5" type="line" smooth="yes"/>
      <point x="230" y="7"/>
      <point x="230" y="10"/>
      <point x="230" y="12" type="curve" smooth="yes"/>
      <point x="230" y="20"/>
      <point x="226" y="26"/>
      <point x="219" y="26" type="curve" smooth="yes"/>
      <point x="214" y="26"/>
      <point x="209" y="23"/>
      <point x="203" y="15" type="curve" smooth="yes"/>
      <point x="110" y="-103" type="line" smooth="yes"/>
      <point x="104" y="-111"/>
      <point x="102" y="-118"/>
      <point x="102" y="-125" type="curve" smooth="yes"/>
      <point x="102" y="-144"/>
      <point x="122" y="-158"/>
      <point x="142" y="-158" type="curve" smooth="yes"/>
      <point x="159" y="-158"/>
      <point x="176" y="-149"/>
    </contour>
  </outline>
</glyph>
<glyph name="guillemotright" format="1">
  <advance width="594"/>
  <unicode hex="00BB"/>
  <outline>
    <contour>
      <point x="354" y="187" type="curve" smooth="yes"/>
      <point x="354" y="207"/>
      <point x="348" y="227"/>
      <point x="334" y="237" type="curve" smooth="yes"/>
      <point x="205" y="327" type="line" smooth="yes"/>
      <point x="195" y="334"/>
      <point x="185" y="337"/>
      <point x="176" y="337" type="curve" smooth="yes"/>
      <point x="152" y="337"/>
      <point x="132" y="316"/>
      <point x="132" y="294" type="curve" smooth="yes"/>
      <point x="132" y="282"/>
      <point x="138" y="269"/>
      <point x="151" y="259" type="curve" smooth="yes"/>
      <point x="251" y="185" type="line"/>
      <point x="141" y="92" type="line" smooth="yes"/>
      <point x="130" y="83"/>
      <point x="126" y="73"/>
      <point x="126" y="63" type="curve" smooth="yes"/>
      <point x="126" y="40"/>
      <point x="149" y="19"/>
      <point x="173" y="19" type="curve" smooth="yes"/>
      <point x="181" y="19"/>
      <point x="190" y="22"/>
      <point x="198" y="28" type="curve" smooth="yes"/>
      <point x="320" y="127" type="line" smooth="yes"/>
      <point x="338" y="142"/>
      <point x="354" y="160"/>
    </contour>
    <contour>
      <point x="575" y="187" type="curve" smooth="yes"/>
      <point x="575" y="207"/>
      <point x="569" y="227"/>
      <point x="555" y="237" type="curve" smooth="yes"/>
      <point x="426" y="327" type="line" smooth="yes"/>
      <point x="416" y="334"/>
      <point x="406" y="337"/>
      <point x="397" y="337" type="curve" smooth="yes"/>
      <point x="373" y="337"/>
      <point x="353" y="316"/>
      <point x="353" y="294" type="curve" smooth="yes"/>
      <point x="353" y="282"/>
      <point x="359" y="269"/>
      <point x="372" y="259" type="curve" smooth="yes"/>
      <point x="472" y="185" type="line"/>
      <point x="362" y="92" type="line" smooth="yes"/>
      <point x="351" y="83"/>
      <point x="347" y="73"/>
      <point x="347" y="63" type="curve" smooth="yes"/>
      <point x="347" y="40"/>
      <point x="370" y="19"/>
      <point x="394" y="19" type="curve" smooth="yes"/>
      <point x="402" y="19"/>
      <point x="411" y="22"/>
      <point x="419" y="28" type="curve" smooth="yes"/>
      <point x="541" y="127" type="line" smooth="yes"/>
      <point x="559" y="142"/>
      <point x="575" y="160"/>
    </contour>
  </outline>
</glyph>
<glyph name="onequarter" format="1">
  <advance width="1017"/>
  <unicode hex="00BC"/>
  <outline>
    <contour>
      <point x="235" y="217" type="curve" smooth="yes"/>
      <point x="271" y="375"/>
      <point x="316" y="622"/>
      <point x="322" y="653" type="curve" smooth="yes"/>
      <point x="323" y="660"/>
      <point x="324" y="666"/>
      <point x="324" y="672" type="curve" smooth="yes"/>
      <point x="324" y="687"/>
      <point x="320" y="697"/>
      <point x="308" y="697" type="curve" smooth="yes"/>
      <point x="303" y="697" type="line" smooth="yes"/>
      <point x="268" y="690"/>
      <point x="157" y="670"/>
      <point x="129" y="662" type="curve" smooth="yes"/>
      <point x="118" y="658"/>
      <point x="113" y="639"/>
      <point x="113" y="620" type="curve" smooth="yes"/>
      <point x="113" y="598"/>
      <point x="119" y="577"/>
      <point x="131" y="577" type="curve" smooth="yes"/>
      <point x="145" y="577"/>
      <point x="201" y="596"/>
      <point x="218" y="602" type="curve"/>
      <point x="198" y="517"/>
      <point x="169" y="386"/>
      <point x="137" y="228" type="curve" smooth="yes"/>
      <point x="137" y="226"/>
      <point x="136" y="224"/>
      <point x="136" y="222" type="curve" smooth="yes"/>
      <point x="136" y="200"/>
      <point x="159" y="190"/>
      <point x="183" y="190" type="curve" smooth="yes"/>
      <point x="207" y="190"/>
      <point x="232" y="200"/>
    </contour>
    <contour>
      <point x="437" y="-29" type="curve" smooth="yes"/>
      <point x="693" y="575" type="line" smooth="yes"/>
      <point x="695" y="580"/>
      <point x="696" y="585"/>
      <point x="696" y="590" type="curve" smooth="yes"/>
      <point x="696" y="612"/>
      <point x="676" y="631"/>
      <point x="655" y="631" type="curve" smooth="yes"/>
      <point x="641" y="631"/>
      <point x="627" y="622"/>
      <point x="617" y="601" type="curve" smooth="yes"/>
      <point x="362" y="15" type="line" smooth="yes"/>
      <point x="359" y="9"/>
      <point x="358" y="4"/>
      <point x="358" y="-2" type="curve" smooth="yes"/>
      <point x="358" y="-28"/>
      <point x="385" y="-49"/>
      <point x="408" y="-49" type="curve" smooth="yes"/>
      <point x="420" y="-49"/>
      <point x="431" y="-43"/>
    </contour>
    <contour>
      <point x="851" y="-21" type="curve" smooth="yes"/>
      <point x="879" y="-21"/>
      <point x="892" y="-18"/>
      <point x="905" y="32" type="curve" smooth="yes"/>
      <point x="914" y="61" type="line"/>
      <point x="921" y="61"/>
      <point x="958" y="63"/>
      <point x="965" y="63" type="curve" smooth="yes"/>
      <point x="991" y="64"/>
      <point x="1005" y="89"/>
      <point x="1005" y="111" type="curve" smooth="yes"/>
      <point x="1005" y="128"/>
      <point x="997" y="142"/>
      <point x="979" y="142" type="curve" smooth="yes"/>
      <point x="978" y="142" type="line"/>
      <point x="978" y="142"/>
      <point x="945" y="143"/>
      <point x="930" y="143" type="curve"/>
      <point x="938" y="180"/>
      <point x="961" y="265"/>
      <point x="967" y="289" type="curve" smooth="yes"/>
      <point x="967" y="291"/>
      <point x="968" y="293"/>
      <point x="968" y="295" type="curve" smooth="yes"/>
      <point x="968" y="312"/>
      <point x="948" y="316"/>
      <point x="931" y="316" type="curve" smooth="yes"/>
      <point x="904" y="316"/>
      <point x="889" y="302"/>
      <point x="880" y="277" type="curve" smooth="yes"/>
      <point x="874.225" y="254.863"/>
      <point x="848.996" y="172.512"/>
      <point x="841.762" y="141.398" type="curve"/>
      <point x="837.695" y="143.605"/>
      <point x="824.196" y="145"/>
      <point x="810" y="145" type="curve" smooth="yes"/>
      <point x="788" y="145"/>
      <point x="766" y="143"/>
      <point x="766" y="143" type="curve"/>
      <point x="802" y="261"/>
      <point x="833" y="357"/>
      <point x="857" y="440" type="curve" smooth="yes"/>
      <point x="858" y="443"/>
      <point x="858" y="445"/>
      <point x="858" y="448" type="curve" smooth="yes"/>
      <point x="858" y="468"/>
      <point x="836" y="478"/>
      <point x="814" y="478" type="curve" smooth="yes"/>
      <point x="795" y="478"/>
      <point x="777" y="471"/>
      <point x="772" y="455" type="curve" smooth="yes"/>
      <point x="745" y="378"/>
      <point x="690" y="210"/>
      <point x="666" y="132" type="curve" smooth="yes"/>
      <point x="662" y="118"/>
      <point x="661" y="106"/>
      <point x="661" y="97" type="curve" smooth="yes"/>
      <point x="661" y="71"/>
      <point x="674" y="62"/>
      <point x="696" y="61" type="curve" smooth="yes"/>
      <point x="696" y="61"/>
      <point x="799" y="60"/>
      <point x="822" y="60" type="curve"/>
      <point x="816" y="30" type="line" smooth="yes"/>
      <point x="814" y="22"/>
      <point x="813" y="15"/>
      <point x="813" y="9" type="curve" smooth="yes"/>
      <point x="813" y="-9"/>
      <point x="822" y="-20"/>
    </contour>
  </outline>
</glyph>
<glyph name="eth" format="1">
  <advance width="383"/>
  <unicode hex="00F0"/>
  <outline>
    <contour>
      <point x="187" y="78" type="line" smooth="yes"/>
      <point x="143" y="83"/>
      <point x="114" y="101"/>
      <point x="114" y="143" type="curve" smooth="yes"/>
      <point x="114" y="187"/>
      <point x="167" y="241"/>
      <point x="226" y="241" type="curve" smooth="yes"/>
      <point x="228" y="241" type="line" smooth="yes"/>
      <point x="255" y="241"/>
      <point x="268" y="237"/>
      <point x="283" y="233" type="curve"/>
      <point x="262" y="190"/>
      <point x="241" y="78"/>
      <point x="191" y="78" type="curve" smooth="yes"/>
    </contour>
    <contour>
      <point x="22" y="142" type="curve" smooth="yes"/>
      <point x="22" y="51"/>
      <point x="89" y="0"/>
      <point x="181" y="-0" type="curve" smooth="yes"/>
      <point x="319" y="0"/>
      <point x="399" y="169"/>
      <point x="402" y="328" type="curve" smooth="yes"/>
      <point x="402" y="368"/>
      <point x="394" y="408"/>
      <point x="383" y="442" type="curve"/>
      <point x="408" y="452" type="line" smooth="yes"/>
      <point x="428" y="461"/>
      <point x="444" y="472"/>
      <point x="444" y="494" type="curve" smooth="yes"/>
      <point x="444" y="518"/>
      <point x="431" y="538"/>
      <point x="411" y="538" type="curve" smooth="yes"/>
      <point x="401" y="538"/>
      <point x="394" y="534"/>
      <point x="388" y="532" type="curve" smooth="yes"/>
      <point x="346" y="515" type="line"/>
      <point x="319" y="554"/>
      <point x="278" y="605"/>
      <point x="181" y="605" type="curve" smooth="yes"/>
      <point x="152" y="605"/>
      <point x="118" y="594"/>
      <point x="118" y="557" type="curve" smooth="yes"/>
      <point x="118" y="536"/>
      <point x="128" y="509"/>
      <point x="148" y="509" type="curve" smooth="yes"/>
      <point x="208" y="509"/>
      <point x="233" y="492"/>
      <point x="250" y="474" type="curve"/>
      <point x="207" y="457" type="line" smooth="yes"/>
      <point x="192" y="449"/>
      <point x="180" y="442"/>
      <point x="180" y="423" type="curve" smooth="yes"/>
      <point x="180" y="400"/>
      <point x="197" y="377"/>
      <point x="220" y="377" type="curve" smooth="yes"/>
      <point x="227" y="377"/>
      <point x="233" y="378"/>
      <point x="239" y="381" type="curve" smooth="yes"/>
      <point x="273" y="395"/>
      <point x="254" y="388"/>
      <point x="288" y="402" type="curve"/>
      <point x="292" y="378"/>
      <point x="293" y="355"/>
      <point x="293" y="339" type="curve"/>
      <point x="270" y="338"/>
      <point x="249" y="339"/>
      <point x="220" y="338" type="curve" smooth="yes"/>
      <point x="135" y="337"/>
      <point x="22" y="248"/>
    </contour>
  </outline>
</glyph>
<glyph name="thorn" format="1">
  <advance width="355"/>
  <unicode hex="00FE"/>
  <outline>
    <contour>
      <point x="190" y="78" type="curve" smooth="yes"/>
      <point x="163" y="78"/>
      <point x="132" y="83"/>
      <point x="122" y="95" type="curve"/>
      <point x="126" y="139"/>
      <point x="136" y="249"/>
      <point x="216" y="249" type="curve" smooth="yes"/>
      <point x="247" y="249"/>
      <point x="261" y="222"/>
      <point x="261" y="185" type="curve" smooth="yes"/>
      <point x="261" y="154"/>
      <point x="228" y="78"/>
    </contour>
    <contour>
      <point x="331" y="202" type="curve" smooth="yes"/>
      <point x="331" y="269"/>
      <point x="305" y="329"/>
      <point x="246" y="329" type="curve" smooth="yes"/>
      <point x="197" y="329"/>
      <point x="177" y="308"/>
      <point x="158" y="290" type="curve"/>
      <point x="198" y="494" type="line" smooth="yes"/>
      <point x="199" y="499"/>
      <point x="200" y="504"/>
      <point x="200" y="508" type="curve" smooth="yes"/>
      <point x="200" y="533"/>
      <point x="183" y="544"/>
      <point x="165" y="544" type="curve" smooth="yes"/>
      <point x="144" y="544"/>
      <point x="119" y="529"/>
      <point x="115" y="505" type="curve" smooth="yes"/>
      <point x="89" y="368"/>
      <point x="80" y="316"/>
      <point x="69" y="256" type="curve" smooth="yes"/>
      <point x="-15" y="-191" type="line" smooth="yes"/>
      <point x="-15" y="-193"/>
      <point x="-16" y="-196"/>
      <point x="-16" y="-198" type="curve" smooth="yes"/>
      <point x="-16" y="-220"/>
      <point x="4" y="-231"/>
      <point x="25" y="-231" type="curve" smooth="yes"/>
      <point x="45" y="-231"/>
      <point x="66" y="-220"/>
      <point x="70" y="-200" type="curve" smooth="yes"/>
      <point x="110" y="24" type="line"/>
      <point x="124" y="17"/>
      <point x="150" y="0"/>
      <point x="190" y="0" type="curve" smooth="yes"/>
      <point x="220" y="0"/>
      <point x="240" y="4"/>
      <point x="269" y="27" type="curve"/>
      <point x="308" y="28"/>
      <point x="377" y="68"/>
      <point x="428" y="118" type="curve" smooth="yes"/>
      <point x="442" y="131"/>
      <point x="449" y="149"/>
      <point x="449" y="164" type="curve" smooth="yes"/>
      <point x="449" y="180"/>
      <point x="441" y="192"/>
      <point x="429" y="192" type="curve" smooth="yes"/>
      <point x="423" y="192"/>
      <point x="416" y="189"/>
      <point x="408" y="182" type="curve" smooth="yes"/>
      <point x="372" y="152"/>
      <point x="311" y="103"/>
      <point x="297" y="103" type="curve"/>
      <point x="318" y="125"/>
      <point x="331" y="157"/>
    </contour>
  </outline>
</glyph>
<glyph name="Lslash" format="1">
  <advance width="622"/>
  <unicode hex="0141"/>
  <outline>
    <component base="L"/>
    <contour>
      <point x="558" y="226" type="line" smooth="yes"/>
      <point x="569" y="233"/>
      <point x="576" y="243"/>
      <point x="576" y="253" type="curve" smooth="yes"/>
      <point x="575" y="267"/>
      <point x="560" y="282"/>
      <point x="543" y="282" type="curve" smooth="yes"/>
      <point x="540" y="282"/>
      <point x="537" y="281"/>
      <point x="533" y="278" type="curve" smooth="yes"/>
      <point x="334" y="170" type="line" smooth="yes"/>
      <point x="317" y="161"/>
      <point x="307" y="150"/>
      <point x="307" y="137" type="curve" smooth="yes"/>
      <point x="307" y="123"/>
      <point x="319" y="111"/>
      <point x="335" y="111" type="curve" smooth="yes"/>
      <point x="340" y="111"/>
      <point x="345" y="111"/>
      <point x="349" y="113" type="curve" smooth="yes"/>
    </contour>
  </outline>
</glyph>
<glyph name="dotlessj" format="1">
  <advance width="217"/>
  <unicode hex="0237"/>
  <outline>
    <contour>
      <point x="163" y="343" type="move" name="top"/>
    </contour>
    <contour>
      <point x="138" y="9" type="curve" smooth="yes"/>
      <point x="138" y="-50"/>
      <point x="134" y="-138"/>
      <point x="104" y="-138" type="curve" smooth="yes"/>
      <point x="88" y="-138"/>
      <point x="85" y="-116"/>
      <point x="85" y="-89" type="curve" smooth="yes"/>
      <point x="85" y="-26"/>
      <point x="109" y="82"/>
      <point x="131" y="152" type="curve"/>
      <point x="134" y="112"/>
      <point x="138" y="59"/>
    </contour>
    <contour>
      <point x="-1" y="-84" type="curve" smooth="yes"/>
      <point x="-1" y="-151"/>
      <point x="18" y="-209"/>
      <point x="98" y="-209" type="curve" smooth="yes"/>
      <point x="188" y="-209"/>
      <point x="208" y="-107"/>
      <point x="208" y="6" type="curve" smooth="yes"/>
      <point x="208" y="49"/>
      <point x="200" y="107"/>
      <point x="197" y="129" type="curve"/>
      <point x="205" y="129" type="line" smooth="yes"/>
      <point x="258" y="129"/>
      <point x="343" y="148"/>
      <point x="343" y="215" type="curve" smooth="yes"/>
      <point x="343" y="230"/>
      <point x="337" y="242"/>
      <point x="326" y="242" type="curve" smooth="yes"/>
      <point x="323" y="242"/>
      <point x="320" y="241"/>
      <point x="316" y="239" type="curve" smooth="yes"/>
      <point x="239" y="208"/>
      <point x="206" y="213"/>
      <point x="147" y="194" type="curve"/>
      <point x="164" y="233" type="line" smooth="yes"/>
      <point x="172" y="250"/>
      <point x="186" y="278"/>
      <point x="186" y="302" type="curve" smooth="yes"/>
      <point x="186" y="316"/>
      <point x="178" y="329"/>
      <point x="160" y="329" type="curve" smooth="yes"/>
      <point x="101" y="329"/>
      <point x="87" y="314"/>
      <point x="71" y="277" type="curve" smooth="yes"/>
      <point x="38" y="198"/>
      <point x="15" y="96"/>
      <point x="5" y="1" type="curve" smooth="yes"/>
      <point x="2" y="-26"/>
      <point x="-1" y="-56"/>
    </contour>
  </outline>
</glyph>
<glyph name="circumflex" format="1">
  <advance width="295"/>
  <unicode hex="02C6"/>
  <outline>
    <contour>
      <point x="130" y="343" type="move" name="_top"/>
    </contour>
    <contour>
      <point x="175" y="406" type="curve" smooth="yes"/>
      <point x="178" y="392"/>
      <point x="190" y="385"/>
      <point x="203" y="385" type="curve" smooth="yes"/>
      <point x="221" y="385"/>
      <point x="241" y="398"/>
      <point x="241" y="416" type="curve" smooth="yes"/>
      <point x="241" y="418"/>
      <point x="241" y="420"/>
      <point x="240" y="423" type="curve" smooth="yes"/>
      <point x="216" y="516" type="line" smooth="yes"/>
      <point x="202" y="568"/>
      <point x="195" y="585"/>
      <point x="156" y="585" type="curve" smooth="yes"/>
      <point x="122" y="585"/>
      <point x="106" y="561"/>
      <point x="90" y="535" type="curve" smooth="yes"/>
      <point x="28" y="432" type="line" smooth="yes"/>
      <point x="25" y="426"/>
      <point x="23" y="421"/>
      <point x="23" y="416" type="curve" smooth="yes"/>
      <point x="23" y="400"/>
      <point x="38" y="389"/>
      <point x="54" y="389" type="curve" smooth="yes"/>
      <point x="65" y="389"/>
      <point x="77" y="394"/>
      <point x="85" y="408" type="curve" smooth="yes"/>
      <point x="89" y="415"/>
      <point x="142" y="499"/>
      <point x="148" y="509" type="curve"/>
      <point x="150" y="497"/>
      <point x="172" y="417"/>
    </contour>
  </outline>
</glyph>
<glyph name="uni030F" format="1">
  <advance width="205"/>
  <unicode hex="030F"/>
  <outline>
    <contour>
      <point x="191" y="343" type="move" name="_top"/>
    </contour>
    <contour>
      <point x="232" y="380" type="line" smooth="yes"/>
      <point x="238" y="372"/>
      <point x="247" y="368"/>
      <point x="256" y="368" type="curve" smooth="yes"/>
      <point x="272" y="368"/>
      <point x="287" y="380"/>
      <point x="287" y="397" type="curve" smooth="yes"/>
      <point x="287" y="402"/>
      <point x="286" y="407"/>
      <point x="283" y="412" type="curve" smooth="yes"/>
      <point x="201" y="602" type="line" smooth="yes"/>
      <point x="190" y="628"/>
      <point x="172" y="638"/>
      <point x="155" y="638" type="curve" smooth="yes"/>
      <point x="130" y="638"/>
      <point x="107" y="617"/>
      <point x="107" y="588" type="curve" smooth="yes"/>
      <point x="107" y="577"/>
      <point x="111" y="565"/>
      <point x="119" y="552" type="curve" smooth="yes"/>
    </contour>
    <contour>
      <point x="65" y="394" type="line" smooth="yes"/>
      <point x="72" y="387"/>
      <point x="80" y="384"/>
      <point x="89" y="384" type="curve" smooth="yes"/>
      <point x="106" y="384"/>
      <point x="122" y="395"/>
      <point x="122" y="410" type="curve" smooth="yes"/>
      <point x="122" y="415"/>
      <point x="120" y="420"/>
      <point x="116" y="426" type="curve" smooth="yes"/>
      <point x="-14" y="602" type="line" smooth="yes"/>
      <point x="-29" y="624"/>
      <point x="-48" y="633"/>
      <point x="-65" y="633" type="curve" smooth="yes"/>
      <point x="-90" y="633"/>
      <point x="-111" y="614"/>
      <point x="-111" y="590" type="curve" smooth="yes"/>
      <point x="-111" y="578"/>
      <point x="-106" y="565"/>
      <point x="-93" y="552" type="curve" smooth="yes"/>
    </contour>
  </outline>
</glyph>
<glyph name="quoteleft" format="1">
  <advance width="240"/>
  <unicode hex="2018"/>
  <outline>
    <contour>
      <point x="168" y="615" type="curve" smooth="yes"/>
      <point x="168" y="631"/>
      <point x="159" y="641"/>
      <point x="139" y="641" type="curve" smooth="yes"/>
      <point x="123" y="641"/>
      <point x="112" y="631"/>
      <point x="105" y="612" type="curve" smooth="yes"/>
      <point x="85" y="561"/>
      <point x="54" y="470"/>
      <point x="38" y="428" type="curve" smooth="yes"/>
      <point x="36" y="423"/>
      <point x="36" y="419"/>
      <point x="36" y="415" type="curve" smooth="yes"/>
      <point x="36" y="390"/>
      <point x="63" y="382"/>
      <point x="88" y="382" type="curve" smooth="yes"/>
      <point x="112" y="382"/>
      <point x="127" y="393"/>
      <point x="131" y="412" type="curve" smooth="yes"/>
      <point x="143" y="471"/>
      <point x="161" y="571"/>
      <point x="167" y="603" type="curve" smooth="yes"/>
      <point x="168" y="607"/>
      <point x="168" y="611"/>
    </contour>
  </outline>
</glyph>
<glyph name="quotedblleft" format="1">
  <advance width="436"/>
  <unicode hex="201C"/>
  <outline>
    <contour>
      <point x="432" y="616" type="curve" smooth="yes"/>
      <point x="432" y="632"/>
      <point x="425" y="640"/>
      <point x="405" y="640" type="curve" smooth="yes"/>
      <point x="388" y="640"/>
      <point x="378" y="631"/>
      <point x="373" y="614" type="curve" smooth="yes"/>
      <point x="367" y="595"/>
      <point x="326" y="468"/>
      <point x="314" y="427" type="curve" smooth="yes"/>
      <point x="313" y="422"/>
      <point x="312" y="418"/>
      <point x="312" y="414" type="curve" smooth="yes"/>
      <point x="312" y="392"/>
      <point x="332" y="385"/>
      <point x="356" y="385" type="curve" smooth="yes"/>
      <point x="378" y="385"/>
      <point x="398" y="391"/>
      <point x="403" y="420" type="curve" smooth="yes"/>
      <point x="410" y="459"/>
      <point x="425" y="552"/>
      <point x="431" y="604" type="curve" smooth="yes"/>
      <point x="431" y="608"/>
      <point x="432" y="612"/>
    </contour>
    <contour>
      <point x="290" y="615" type="curve" smooth="yes"/>
      <point x="290" y="631"/>
      <point x="281" y="641"/>
      <point x="261" y="641" type="curve" smooth="yes"/>
      <point x="245" y="641"/>
      <point x="234" y="631"/>
      <point x="227" y="612" type="curve" smooth="yes"/>
      <point x="207" y="561"/>
      <point x="176" y="470"/>
      <point x="160" y="428" type="curve" smooth="yes"/>
      <point x="158" y="423"/>
      <point x="158" y="419"/>
      <point x="158" y="415" type="curve" smooth="yes"/>
      <point x="158" y="390"/>
      <point x="185" y="382"/>
      <point x="210" y="382" type="curve" smooth="yes"/>
      <point x="234" y="382"/>
      <point x="249" y="393"/>
      <point x="253" y="412" type="curve" smooth="yes"/>
      <point x="265" y="471"/>
      <point x="283" y="571"/>
      <point x="289" y="603" type="curve" smooth="yes"/>
      <point x="290" y="607"/>
      <point x="290" y="611"/>
    </contour>
  </outline>
</glyph>
<glyph name="quotedblright" format="1">
  <advance width="537"/>
  <unicode hex="201D"/>
  <outline>
    <contour>
      <point x="153" y="408" type="curve" smooth="yes"/>
      <point x="153" y="392"/>
      <point x="160" y="384"/>
      <point x="180" y="384" type="curve" smooth="yes"/>
      <point x="197" y="384"/>
      <point x="207" y="393"/>
      <point x="212" y="410" type="curve" smooth="yes"/>
      <point x="218" y="429"/>
      <point x="259" y="556"/>
      <point x="271" y="597" type="curve" smooth="yes"/>
      <point x="272" y="602"/>
      <point x="273" y="606"/>
      <point x="273" y="610" type="curve" smooth="yes"/>
      <point x="273" y="632"/>
      <point x="253" y="639"/>
      <point x="229" y="639" type="curve" smooth="yes"/>
      <point x="207" y="639"/>
      <point x="187" y="633"/>
      <point x="182" y="604" type="curve" smooth="yes"/>
      <point x="175" y="565"/>
      <point x="160" y="472"/>
      <point x="154" y="420" type="curve" smooth="yes"/>
      <point x="154" y="416"/>
      <point x="153" y="412"/>
    </contour>
    <contour>
      <point x="295" y="409" type="curve" smooth="yes"/>
      <point x="295" y="393"/>
      <point x="304" y="383"/>
      <point x="324" y="383" type="curve" smooth="yes"/>
      <point x="340" y="383"/>
      <point x="351" y="393"/>
      <point x="358" y="412" type="curve" smooth="yes"/>
      <point x="378" y="463"/>
      <point x="409" y="554"/>
      <point x="425" y="596" type="curve" smooth="yes"/>
      <point x="427" y="601"/>
      <point x="427" y="605"/>
      <point x="427" y="609" type="curve" smooth="yes"/>
      <point x="427" y="634"/>
      <point x="400" y="642"/>
      <point x="375" y="642" type="curve" smooth="yes"/>
      <point x="351" y="642"/>
      <point x="336" y="631"/>
      <point x="332" y="612" type="curve" smooth="yes"/>
      <point x="320" y="553"/>
      <point x="302" y="453"/>
      <point x="296" y="421" type="curve" smooth="yes"/>
      <point x="295" y="417"/>
      <point x="295" y="413"/>
    </contour>
  </outline>
</glyph>
<glyph name="daggerdbl" format="1">
  <advance width="394"/>
  <unicode hex="2021"/>
  <outline>
    <contour>
      <point x="90" y="142" type="line" smooth="yes"/>
      <point x="65" y="142"/>
      <point x="47" y="129"/>
      <point x="47" y="108" type="curve" smooth="yes"/>
      <point x="47" y="87"/>
      <point x="63" y="78"/>
      <point x="87" y="78" type="curve" smooth="yes"/>
      <point x="169.586" y="78" type="line"/>
      <point x="146" y="-17" type="line" smooth="yes"/>
      <point x="141" y="-36"/>
      <point x="139" y="-51"/>
      <point x="139" y="-62" type="curve" smooth="yes"/>
      <point x="139" y="-90"/>
      <point x="153" y="-100"/>
      <point x="179" y="-100" type="curve" smooth="yes"/>
      <point x="214" y="-100"/>
      <point x="229" y="-66"/>
      <point x="238" y="-32" type="curve" smooth="yes"/>
      <point x="266.131" y="78" type="line"/>
      <point x="361" y="78" type="line" smooth="yes"/>
      <point x="386" y="78"/>
      <point x="405" y="86"/>
      <point x="405" y="111" type="curve" smooth="yes"/>
      <point x="405" y="129"/>
      <point x="389" y="142"/>
      <point x="367" y="142" type="curve" smooth="yes"/>
      <point x="282.498" y="142" type="line"/>
      <point x="316" y="273" type="line"/>
      <point x="409" y="273" type="line" smooth="yes"/>
      <point x="436" y="273"/>
      <point x="453" y="281"/>
      <point x="453" y="306" type="curve" smooth="yes"/>
      <point x="453" y="324"/>
      <point x="437" y="337"/>
      <point x="415" y="337" type="curve" smooth="yes"/>
      <point x="328" y="337" type="line"/>
      <point x="351" y="430"/>
      <point x="360" y="456"/>
      <point x="360" y="482" type="curve" smooth="yes"/>
      <point x="360" y="488"/>
      <point x="360" y="493"/>
      <point x="359" y="500" type="curve" smooth="yes"/>
      <point x="356" y="507"/>
      <point x="350" y="521"/>
      <point x="331" y="521" type="curve" smooth="yes"/>
      <point x="277" y="521"/>
      <point x="271" y="481"/>
      <point x="234" y="337" type="curve"/>
      <point x="138" y="337" type="line" smooth="yes"/>
      <point x="109" y="337"/>
      <point x="95" y="324"/>
      <point x="95" y="303" type="curve" smooth="yes"/>
      <point x="95" y="282"/>
      <point x="111" y="273"/>
      <point x="135" y="273" type="curve" smooth="yes"/>
      <point x="218" y="273" type="line"/>
      <point x="185.476" y="142" type="line"/>
    </contour>
  </outline>
</glyph>
<glyph name="perthousand" format="1">
  <advance width="1104"/>
  <unicode hex="2030"/>
  <outline>
    <contour>
      <point x="931" y="50" type="curve" smooth="yes"/>
      <point x="892" y="50"/>
      <point x="876" y="93"/>
      <point x="876" y="141" type="curve" smooth="yes"/>
      <point x="876" y="202"/>
      <point x="904" y="270"/>
      <point x="957" y="270" type="curve" smooth="yes"/>
      <point x="993" y="270"/>
      <point x="1009" y="227"/>
      <point x="1009" y="179" type="curve" smooth="yes"/>
      <point x="1009" y="118"/>
      <point x="982" y="50"/>
    </contour>
    <contour>
      <point x="587" y="52" type="curve" smooth="yes"/>
      <point x="547" y="52"/>
      <point x="530" y="97"/>
      <point x="530" y="144" type="curve" smooth="yes"/>
      <point x="530" y="204"/>
      <point x="559" y="271"/>
      <point x="611" y="271" type="curve" smooth="yes"/>
      <point x="649" y="271"/>
      <point x="664" y="230"/>
      <point x="664" y="181" type="curve" smooth="yes"/>
      <point x="664" y="120"/>
      <point x="637" y="52"/>
    </contour>
    <contour>
      <point x="174" y="314" type="curve" smooth="yes"/>
      <point x="139" y="314"/>
      <point x="122" y="357"/>
      <point x="122" y="404" type="curve" smooth="yes"/>
      <point x="122" y="464"/>
      <point x="150" y="531"/>
      <point x="204" y="531" type="curve" smooth="yes"/>
      <point x="240" y="531"/>
      <point x="258" y="486"/>
      <point x="258" y="437" type="curve" smooth="yes"/>
      <point x="258" y="378"/>
      <point x="231" y="314"/>
    </contour>
    <contour>
      <point x="787" y="136" type="curve" smooth="yes"/>
      <point x="787" y="49"/>
      <point x="839" y="-25"/>
      <point x="929" y="-25" type="curve" smooth="yes"/>
      <point x="1026" y="-25"/>
      <point x="1095" y="56"/>
      <point x="1095" y="184" type="curve" smooth="yes"/>
      <point x="1095" y="267"/>
      <point x="1047" y="348"/>
      <point x="955" y="348" type="curve" smooth="yes"/>
      <point x="846" y="348"/>
      <point x="787" y="245"/>
    </contour>
    <contour>
      <point x="442" y="139" type="curve" smooth="yes"/>
      <point x="442" y="50"/>
      <point x="495" y="-23"/>
      <point x="589" y="-23" type="curve" smooth="yes"/>
      <point x="681" y="-23"/>
      <point x="750" y="60"/>
      <point x="750" y="186" type="curve" smooth="yes"/>
      <point x="750" y="268"/>
      <point x="704" y="349"/>
      <point x="609" y="349" type="curve" smooth="yes"/>
      <point x="506" y="349"/>
      <point x="442" y="249"/>
    </contour>
    <contour>
      <point x="295" y="-7" type="curve" smooth="yes"/>
      <point x="371" y="144"/>
      <point x="522" y="446"/>
      <point x="571" y="546" type="curve" smooth="yes"/>
      <point x="573" y="551"/>
      <point x="574" y="555"/>
      <point x="574" y="560" type="curve" smooth="yes"/>
      <point x="574" y="583"/>
      <point x="553" y="605"/>
      <point x="531" y="605" type="curve" smooth="yes"/>
      <point x="518" y="605"/>
      <point x="506" y="598"/>
      <point x="496" y="579" type="curve" smooth="yes"/>
      <point x="446" y="480"/>
      <point x="295" y="175"/>
      <point x="224" y="34" type="curve" smooth="yes"/>
      <point x="216" y="20"/>
      <point x="213" y="7"/>
      <point x="213" y="-3" type="curve" smooth="yes"/>
      <point x="213" y="-26"/>
      <point x="229" y="-39"/>
      <point x="248" y="-39" type="curve" smooth="yes"/>
      <point x="265" y="-39"/>
      <point x="284" y="-29"/>
    </contour>
    <contour>
      <point x="32" y="395" type="curve" smooth="yes"/>
      <point x="32" y="306"/>
      <point x="79" y="239"/>
      <point x="175" y="239" type="curve" smooth="yes"/>
      <point x="273" y="239"/>
      <point x="344" y="310"/>
      <point x="344" y="447" type="curve" smooth="yes"/>
      <point x="344" y="532"/>
      <point x="296" y="610"/>
      <point x="205" y="610" type="curve" smooth="yes"/>
      <point x="93" y="610"/>
      <point x="32" y="506"/>
    </contour>
  </outline>
</glyph>
<glyph name="Euro" format="1">
  <advance width="634"/>
  <unicode hex="20AC"/>
  <outline>
    <contour>
      <point x="97" y="359" type="line" smooth="yes"/>
      <point x="71" y="359"/>
      <point x="47" y="346"/>
      <point x="47" y="318" type="curve" smooth="yes"/>
      <point x="47" y="302"/>
      <point x="63" y="297"/>
      <point x="89" y="297" type="curve" smooth="yes"/>
      <point x="102" y="297" type="line"/>
      <point x="99" y="291"/>
      <point x="87" y="239"/>
      <point x="87" y="227" type="curve"/>
      <point x="62" y="227" type="line" smooth="yes"/>
      <point x="42" y="227"/>
      <point x="29" y="211"/>
      <point x="29" y="195" type="curve" smooth="yes"/>
      <point x="29" y="181"/>
      <point x="40" y="167"/>
      <point x="69" y="167" type="curve" smooth="yes"/>
      <point x="82" y="167" type="line"/>
      <point x="82" y="165" type="line" smooth="yes"/>
      <point x="82" y="21"/>
      <point x="165" y="-69"/>
      <point x="299" y="-69" type="curve" smooth="yes"/>
      <point x="453" y="-69"/>
      <point x="548" y="12"/>
      <point x="584" y="73" type="curve" smooth="yes"/>
      <point x="586" y="76"/>
      <point x="587" y="80"/>
      <point x="587" y="84" type="curve" smooth="yes"/>
      <point x="587" y="104"/>
      <point x="560" y="127"/>
      <point x="538" y="127" type="curve" smooth="yes"/>
      <point x="531" y="127"/>
      <point x="524" y="124"/>
      <point x="519" y="119" type="curve" smooth="yes"/>
      <point x="476" y="76"/>
      <point x="418" y="30"/>
      <point x="336" y="30" type="curve" smooth="yes"/>
      <point x="244" y="30"/>
      <point x="202" y="77"/>
      <point x="202" y="161" type="curve" smooth="yes"/>
      <point x="202" y="167" type="line"/>
      <point x="323" y="167" type="line" smooth="yes"/>
      <point x="354" y="167"/>
      <point x="368" y="175"/>
      <point x="368" y="208" type="curve" smooth="yes"/>
      <point x="368" y="226"/>
      <point x="353" y="227"/>
      <point x="334" y="227" type="curve" smooth="yes"/>
      <point x="329" y="227" type="line" smooth="yes"/>
      <point x="209" y="227" type="line"/>
      <point x="210" y="237"/>
      <point x="221" y="289"/>
      <point x="225" y="297" type="curve"/>
      <point x="354" y="297" type="line" smooth="yes"/>
      <point x="390" y="297"/>
      <point x="402" y="307"/>
      <point x="402" y="331" type="curve" smooth="yes"/>
      <point x="402" y="351"/>
      <point x="387" y="359"/>
      <point x="366" y="359" type="curve" smooth="yes"/>
      <point x="246" y="359" type="line"/>
      <point x="282" y="459"/>
      <point x="342" y="518"/>
      <point x="426" y="526" type="curve" smooth="yes"/>
      <point x="431" y="527"/>
      <point x="436" y="527"/>
      <point x="441" y="527" type="curve" smooth="yes"/>
      <point x="500" y="527"/>
      <point x="525" y="489"/>
      <point x="525" y="453" type="curve" smooth="yes"/>
      <point x="525" y="445"/>
      <point x="522" y="438"/>
      <point x="522" y="430" type="curve" smooth="yes"/>
      <point x="522" y="411"/>
      <point x="540" y="400"/>
      <point x="559" y="400" type="curve" smooth="yes"/>
      <point x="576" y="400"/>
      <point x="594" y="408"/>
      <point x="601" y="424" type="curve" smooth="yes"/>
      <point x="609" y="442"/>
      <point x="613" y="461"/>
      <point x="613" y="480" type="curve" smooth="yes"/>
      <point x="613" y="546"/>
      <point x="563" y="613"/>
      <point x="439" y="613" type="curve" smooth="yes"/>
      <point x="272" y="613"/>
      <point x="174" y="487"/>
      <point x="127" y="359" type="curve"/>
    </contour>
  </outline>
</glyph>
<glyph name="partialdiff" format="1">
  <advance width="478"/>
  <unicode hex="2202"/>
  <outline>
    <contour>
      <point x="262" y="88" type="curve" smooth="yes"/>
      <point x="225" y="88"/>
      <point x="196" y="111"/>
      <point x="196" y="152" type="curve" smooth="yes"/>
      <point x="196" y="220"/>
      <point x="272" y="264"/>
      <point x="340" y="264" type="curve" smooth="yes"/>
      <point x="352" y="264"/>
      <point x="364" y="263"/>
      <point x="375" y="260" type="curve" smooth="yes"/>
      <point x="375" y="247" type="line" smooth="yes"/>
      <point x="375" y="134"/>
      <point x="313" y="88"/>
    </contour>
    <contour>
      <point x="246" y="-0" type="curve" smooth="yes"/>
      <point x="389" y="-0"/>
      <point x="485" y="123"/>
      <point x="485" y="301" type="curve" smooth="yes"/>
      <point x="485" y="310"/>
      <point x="484" y="319"/>
      <point x="484" y="328" type="curve" smooth="yes"/>
      <point x="479" y="431"/>
      <point x="428" y="605"/>
      <point x="263" y="605" type="curve" smooth="yes"/>
      <point x="231" y="605"/>
      <point x="213" y="584"/>
      <point x="213" y="565" type="curve" smooth="yes"/>
      <point x="213" y="551"/>
      <point x="223" y="537"/>
      <point x="245" y="532" type="curve" smooth="yes"/>
      <point x="339" y="510"/>
      <point x="375" y="455"/>
      <point x="375" y="339" type="curve"/>
      <point x="253" y="334"/>
      <point x="104" y="302"/>
      <point x="104" y="142" type="curve" smooth="yes"/>
      <point x="104" y="55"/>
      <point x="154" y="-0"/>
    </contour>
  </outline>
</glyph>
<glyph name="emptyset" format="1">
  <advance width="462"/>
  <unicode hex="2205"/>
  <outline>
    <contour>
      <point x="292" y="125" type="curve"/>
      <point x="365" y="352" type="line"/>
      <point x="378" y="339"/>
      <point x="383" y="316"/>
      <point x="383" y="288" type="curve" smooth="yes"/>
      <point x="383" y="220"/>
      <point x="348" y="128"/>
    </contour>
    <contour>
      <point x="252" y="137" type="line"/>
      <point x="238" y="153"/>
      <point x="232" y="177"/>
      <point x="232" y="200" type="curve" smooth="yes"/>
      <point x="232" y="267"/>
      <point x="274" y="340"/>
      <point x="324" y="357" type="curve"/>
    </contour>
    <contour>
      <point x="215" y="-102" type="curve" smooth="yes"/>
      <point x="265" y="36" type="line" smooth="yes"/>
      <point x="268" y="36" type="line" smooth="yes"/>
      <point x="395" y="36"/>
      <point x="468" y="182"/>
      <point x="468" y="301" type="curve" smooth="yes"/>
      <point x="468" y="368"/>
      <point x="445" y="426"/>
      <point x="395" y="444" type="curve"/>
      <point x="443" y="592" type="line" smooth="yes"/>
      <point x="445" y="597"/>
      <point x="446" y="601"/>
      <point x="446" y="605" type="curve" smooth="yes"/>
      <point x="446" y="617"/>
      <point x="438" y="624"/>
      <point x="429" y="624" type="curve" smooth="yes"/>
      <point x="420" y="624"/>
      <point x="410" y="617"/>
      <point x="405" y="601" type="curve" smooth="yes"/>
      <point x="353" y="448" type="line"/>
      <point x="244" y="442"/>
      <point x="150" y="305"/>
      <point x="150" y="179" type="curve" smooth="yes"/>
      <point x="150" y="116"/>
      <point x="174" y="66"/>
      <point x="221" y="46" type="curve"/>
      <point x="177" y="-91" type="line" smooth="yes"/>
      <point x="176" y="-93"/>
      <point x="176" y="-95"/>
      <point x="176" y="-97" type="curve" smooth="yes"/>
      <point x="176" y="-108"/>
      <point x="187" y="-116"/>
      <point x="197" y="-116" type="curve" smooth="yes"/>
      <point x="205" y="-116"/>
      <point x="212" y="-112"/>
    </contour>
  </outline>
</glyph>
<glyph name="greaterequal" format="1">
  <advance width="579"/>
  <unicode hex="2265"/>
  <outline>
    <component base="greater" xOffset="111" yOffset="58"/>
    <contour>
      <point x="203" y="57" type="line" smooth="yes"/>
      <point x="167" y="57"/>
      <point x="145" y="52"/>
      <point x="145" y="14" type="curve" smooth="yes"/>
      <point x="145" y="-8"/>
      <point x="160" y="-19"/>
      <point x="188" y="-19" type="curve" smooth="yes"/>
      <point x="424" y="-19" type="line" smooth="yes"/>
      <point x="461" y="-19"/>
      <point x="473" y="-8"/>
      <point x="473" y="15" type="curve" smooth="yes"/>
      <point x="473" y="48"/>
      <point x="456" y="57"/>
      <point x="430" y="57" type="curve" smooth="yes"/>
    </contour>
  </outline>
</glyph>
